<svg width="19" height="19" viewBox="0 0 19 19" fill="none" xmlns="http://www.w3.org/2000/svg">
<path d="M3.32533 19H15.6747C16.7875 19 17.6199 18.7263 18.1719 18.179C18.724 17.6317 19 16.8107 19 15.716V3.28395C19 2.18931 18.724 1.36832 18.1719 0.820994C17.6199 0.273664 16.7875 0 15.6747 0H3.32533C2.22123 0 1.39098 0.273664 0.834586 0.820994C0.278195 1.36832 0 2.18931 0 3.28395V15.716C0 16.8107 0.278195 17.6317 0.834586 18.179C1.39098 18.7263 2.22123 19 3.32533 19Z" fill="#019973"/>
<path d="M8.34514 14.5171C8.14519 14.5171 7.96045 14.4715 7.79092 14.3803C7.6214 14.2891 7.4584 14.1436 7.30192 13.9437L4.87636 10.9074C4.69381 10.6728 4.60254 10.4209 4.60254 10.1516C4.60254 9.89094 4.69164 9.66506 4.86985 9.47394C5.04807 9.28279 5.27194 9.18722 5.54145 9.18722C5.70662 9.18722 5.85876 9.22198 5.99787 9.29149C6.13696 9.36099 6.27606 9.4913 6.41516 9.68243L8.29298 12.1975L12.4529 5.46021C12.6702 5.10401 12.9484 4.9259 13.2875 4.9259C13.5396 4.9259 13.7678 5.0041 13.9721 5.1605C14.1764 5.31687 14.2786 5.53407 14.2786 5.81207C14.2786 5.94238 14.246 6.07487 14.1808 6.20952C14.1156 6.34419 14.0482 6.47233 13.9786 6.59394L9.32318 13.9437C9.08846 14.326 8.76244 14.5171 8.34514 14.5171Z" fill="#FFFAFA"/>
</svg>
