<svg width="32" height="32" viewBox="0 0 32 32" fill="none" xmlns="http://www.w3.org/2000/svg">
<path d="M14.9753 26.5235H17.0144C17.8481 26.5235 18.501 26.0011 18.7019 25.1976L19.1037 23.4397L19.3648 23.3393L20.9016 24.2935C21.6048 24.7355 22.4385 24.615 23.0311 24.0223L24.4374 22.6161C25.04 22.0134 25.1405 21.1897 24.6985 20.4967L23.7443 18.9598L23.8447 18.7188L25.6025 18.3069C26.3961 18.106 26.9184 17.4531 26.9184 16.6194V14.6406C26.9184 13.8069 26.4061 13.154 25.6025 12.9531L23.8548 12.5313L23.7543 12.2701L24.7086 10.7433C25.1505 10.0502 25.0501 9.22658 24.4474 8.61385L23.0412 7.2076C22.4586 6.61497 21.6249 6.50448 20.9217 6.9364L19.3849 7.88059L19.1037 7.78015L18.7019 6.01229C18.501 5.20872 17.8481 4.69644 17.0144 4.69644H14.9753C14.1316 4.69644 13.4787 5.20872 13.2878 6.01229L12.886 7.78015L12.6048 7.88059L11.0679 6.9364C10.3548 6.50448 9.53111 6.61497 8.94852 7.2076L7.53223 8.61385C6.93959 9.22658 6.8291 10.0502 7.27107 10.7433L8.22531 12.2701L8.12486 12.5313L6.38714 12.9531C5.58357 13.154 5.07129 13.8069 5.07129 14.6406V16.6194C5.07129 17.4531 5.59361 18.106 6.38714 18.3069L8.14495 18.7188L8.23535 18.9598L7.28111 20.4967C6.83915 21.1897 6.94964 22.0134 7.54227 22.6161L8.95857 24.0223C9.54116 24.615 10.3749 24.7355 11.078 24.2935L12.6148 23.3393L12.886 23.4397L13.2878 25.1976C13.4787 26.0011 14.1316 26.5235 14.9753 26.5235ZM15.2365 24.6752C15.0657 24.6752 14.9753 24.6049 14.9552 24.4543L14.3525 21.9833C13.7197 21.8326 13.107 21.5714 12.6148 21.2601L10.4452 22.596C10.3146 22.6764 10.1941 22.6663 10.0735 22.5458L9.01883 21.4911C8.8983 21.3806 8.8983 21.2601 8.97866 21.1295L10.3146 18.9598C10.0333 18.4777 9.77218 17.875 9.62151 17.2422L7.14049 16.6496C6.98982 16.6295 6.90946 16.5391 6.90946 16.3683V14.8817C6.90946 14.7009 6.97977 14.6306 7.14049 14.5904L9.61147 14.0078C9.76214 13.3348 10.0534 12.7121 10.3045 12.2601L8.96861 10.1105C8.88825 9.96988 8.88825 9.84934 8.99874 9.72881L10.0635 8.68417C10.184 8.57367 10.2945 8.55358 10.4452 8.64399L12.5947 9.95983C13.0467 9.67858 13.7197 9.39733 14.3626 9.23662L14.9552 6.76564C14.9753 6.61497 15.0657 6.53461 15.2365 6.53461H16.7532C16.924 6.53461 17.0043 6.60492 17.0345 6.76564L17.6371 9.24667C18.29 9.40738 18.8827 9.67858 19.3849 9.95983L21.5345 8.64399C21.6851 8.56363 21.7956 8.57367 21.9162 8.69421L22.9809 9.73885C23.1014 9.84934 23.1014 9.96988 23.011 10.1105L21.6851 12.2601C21.9262 12.7121 22.2275 13.3348 22.3782 14.0078L24.8492 14.5904C25.0099 14.6306 25.0702 14.7009 25.0702 14.8817V16.3683C25.0702 16.5391 24.9999 16.6295 24.8492 16.6496L22.3682 17.2422C22.2175 17.875 21.9463 18.4877 21.665 18.9598L23.001 21.1194C23.0813 21.2601 23.0813 21.3706 22.9608 21.481L21.9061 22.5458C21.7856 22.6663 21.665 22.6764 21.5345 22.596L19.3749 21.2601C18.8726 21.5714 18.3001 21.8226 17.6371 21.9833L17.0345 24.4543C17.0043 24.6049 16.924 24.6752 16.7532 24.6752H15.2365ZM15.9999 19.4219C18.0891 19.4219 19.8068 17.7043 19.8068 15.6049C19.8068 13.5257 18.0891 11.808 15.9999 11.808C13.9005 11.808 12.1729 13.5257 12.1729 15.6049C12.1729 17.7043 13.9005 19.4219 15.9999 19.4219ZM15.9999 17.6842C14.8548 17.6842 13.9206 16.75 13.9206 15.6049C13.9206 14.4799 14.8648 13.5458 15.9999 13.5458C17.1148 13.5458 18.049 14.4799 18.049 15.6049C18.049 16.74 17.1148 17.6842 15.9999 17.6842Z" fill="#FFFAFA"/>
</svg>
