<svg width="11" height="11" viewBox="0 0 11 11" fill="none" xmlns="http://www.w3.org/2000/svg">
<path d="M1.16394 11C1.50274 11 1.78142 10.8851 1.99999 10.6553L5.49179 7.14179L8.98359 10.6553C9.22403 10.8851 9.50272 11 9.81968 11C10.1366 11 10.4098 10.8851 10.6393 10.6553C10.8689 10.4254 10.9836 10.1463 10.9836 9.81792C10.9836 9.50051 10.8689 9.22688 10.6393 8.99702L7.14755 5.5L10.6557 1.97016C10.8852 1.74031 11 1.47215 11 1.16567C11 0.837326 10.8852 0.560959 10.6557 0.336575C10.4262 0.112192 10.153 0 9.83606 0C9.54097 0 9.27321 0.114926 9.03278 0.344779L5.49179 3.87462L1.96722 0.361188C1.75958 0.131335 1.49182 0.016409 1.16394 0.016409C0.846999 0.016409 0.573775 0.128601 0.344265 0.352984C0.114755 0.577368 0 0.853733 0 1.18208C0 1.49949 0.114755 1.76765 0.344265 1.98657L3.83607 5.5L0.344265 9.01343C0.114755 9.23235 0 9.50051 0 9.81792C0 10.1463 0.114755 10.4254 0.344265 10.6553C0.573775 10.8851 0.846999 11 1.16394 11Z" fill="#FE8373"/>
</svg>
