<svg width="11" height="18" viewBox="0 0 11 18" fill="none" xmlns="http://www.w3.org/2000/svg">
<path d="M0.146337 8.6255C0.0390233 9.11381 0 9.7601 0 10.191C0 13.815 2.20481 16.2086 5.57057 16.2086C7.22418 16.2086 8.20464 15.4857 8.69243 14.9543C9.09242 15.5097 9.31681 16.1033 9.57046 16.8884C9.64363 17.123 9.81435 17.2188 10.0046 17.2188C10.3802 17.2188 10.6875 16.898 10.6875 16.4576C10.6875 15.7921 9.70216 14.624 9.18998 14.1549C7.01931 12.1825 3.72184 13.365 2.89748 11.2202C2.83894 11.067 2.99991 10.9426 3.14625 11.0862C4.83889 12.7953 7.04858 11.3686 9.15096 13.2596C9.33632 13.4272 9.56558 13.341 9.59973 13.1447C9.62411 13.0107 9.63875 12.7905 9.63875 12.5703C9.63875 10.2245 7.98026 9.04679 5.58521 9.04679C4.79498 9.04679 3.86818 9.24307 3.14625 9.24307C2.37066 9.24307 1.49264 9.18562 0.785343 8.45316C0.56096 8.22337 0.229262 8.27124 0.146337 8.6255Z" fill="#019973"/>
<circle cx="3.5625" cy="2.375" r="0.59375" fill="#019973"/>
<circle cx="5.34375" cy="0.59375" r="0.59375" fill="#019973"/>
<circle cx="7.125" cy="4.75" r="0.59375" fill="#019973"/>
<circle cx="2.375" cy="7.125" r="0.59375" fill="#019973"/>
<circle cx="7.125" cy="2.375" r="0.59375" fill="#019973"/>
<circle cx="5.34375" cy="3.5625" r="0.59375" fill="#019973"/>
<circle cx="4.75" cy="5.9375" r="0.59375" fill="#019973"/>
<circle cx="7.125" cy="7.125" r="0.59375" fill="#019973"/>
<circle cx="2.375" cy="4.75" r="0.59375" fill="#019973"/>
</svg>
