<svg width="282" height="289" viewBox="0 0 282 289" fill="none" xmlns="http://www.w3.org/2000/svg">
<rect width="282" height="289" rx="16" fill="#61C2A1"/>
<path d="M253.6 82.5546L248.17 85.9896V202.247L253.6 205.564V82.5546Z" fill="#9BAA6C"/>
<path d="M140.83 18L140.531 24.5739L248.17 85.9897L253.6 82.5546L140.83 18Z" fill="#EBF2D2"/>
<path d="M140.591 139.765V24.5739L248.17 85.9304V202.247L140.591 139.765Z" fill="#CEDC9F"/>
<path d="M140.592 139.765L33.7881 202.07L140.83 263.722L248.171 202.247L140.592 139.765Z" fill="#FDF9D9"/>
<path d="M253.6 205.564L248.171 202.247L140.83 263.722V270L253.6 205.564Z" fill="#9BAA6C"/>
<path d="M28 205.505L33.728 202.01L140.83 263.722V270L28 205.505Z" fill="#EBF2D2"/>
<path d="M33.7877 85.6935L28.1193 82.5546L28 205.505L33.8473 201.951L33.7877 85.6935Z" fill="#EBF2D2"/>
<path d="M140.592 24.4554L33.7285 85.5751V202.07L140.592 139.765V24.4554Z" fill="#BECD8D"/>
<path d="M65.7699 106.008L48.6455 116.016V153.269L65.7699 143.497V106.008Z" fill="white"/>
<path d="M105.806 127.21V120.577L118.813 113.351L124.302 116.49L105.806 127.21Z" fill="#CABDB1"/>
<path d="M87.1895 137.989V131.237L102.882 122.531V127.032L104.493 127.98L87.1895 137.989Z" fill="#CABDB1"/>
<path d="M68.5742 148.827V142.016L84.2069 133.073V137.574L85.8179 138.759L68.5742 148.827Z" fill="#CABDB1"/>
<path d="M84.2069 95.4655L68.5742 104.468V142.016L84.2069 133.073V95.4655Z" fill="white"/>
<path d="M102.823 84.8644L87.1902 93.8073V131.296L102.883 122.531L102.823 84.8644Z" fill="white"/>
<path d="M118.814 75.803L105.806 83.2061V120.577L118.754 113.351L118.814 75.803Z" fill="white"/>
<path d="M48.7051 160.257V153.209L65.7698 143.497V148.175L67.3808 149.478L48.7051 160.257Z" fill="#CABDB1"/>
<path d="M124.422 72.4272L118.814 75.6846L118.754 113.351L124.422 116.549V72.4272Z" fill="#DCCEC1"/>
<path d="M104.433 83.8575L102.822 84.7459L102.882 127.032L104.493 128.039L104.433 83.8575Z" fill="#DCCEC1"/>
<path d="M85.7574 94.5179L84.2061 95.4063V137.574L85.8171 138.759L85.7574 94.5179Z" fill="#DCCEC1"/>
<path d="M65.7695 148.175V106.007L67.3805 105.06V149.478L65.7695 148.175Z" fill="#DCCEC1"/>
<path d="M105.806 83.0876L104.493 83.8576V128.039L105.806 127.269V83.0876Z" fill="#C5B7AB"/>
<path d="M87.1898 93.6888L85.7578 94.5179L85.8175 138.818L87.1898 138.048V93.6888Z" fill="#C5B7AB"/>
<path d="M105.865 83.0876V81.0148L124.422 70.2952V72.5457L105.865 83.0876Z" fill="#C5B7AB"/>
<path d="M118.753 55.3113L105.865 62.7144V79.1788L118.753 71.7165V55.3113Z" fill="white"/>
<path d="M87.25 93.6888V91.5567L104.434 81.7255L104.494 63.4844L105.866 62.6552V83.0876L87.25 93.6888Z" fill="#C5B7AB"/>
<path d="M104.494 63.4843L103.002 64.3727L102.942 81.0147L87.25 89.8984V91.6159L104.434 81.7254L104.494 63.4843Z" fill="#DCCEC1"/>
<path d="M103.062 64.3135L87.25 73.3156V89.8984L102.942 81.0148L103.062 64.3135Z" fill="white"/>
<path d="M68.7529 104.349V102.395L85.8773 92.3266L85.8176 74.1447L87.2496 73.2563V93.6888L68.7529 104.349Z" fill="#C5B7AB"/>
<path d="M68.6934 102.454V100.44L84.326 91.7344V74.9739L85.8177 74.1447L85.8774 92.3266L68.6934 102.454Z" fill="#DCCEC1"/>
<path d="M84.3858 74.9147L68.6338 83.8576V100.5L84.3261 91.7344L84.3858 74.9147Z" fill="white"/>
<path d="M67.3808 84.6274L65.8294 85.5158L65.7698 102.099L48.7051 111.989V113.707L67.2614 103.046L67.3808 84.6274Z" fill="#DCCEC1"/>
<path d="M65.7698 85.5751L48.7051 95.2879V111.989L65.7698 102.099V85.5751Z" fill="white"/>
<path d="M46.4971 94.1626V163.455L48.7047 160.198V95.3471L46.4971 94.1626Z" fill="#FCE7D4"/>
<path d="M48.5855 160.316L124.422 116.49L126.57 117.852L46.4375 163.514L48.5855 160.316Z" fill="#FCE7D4"/>
<path d="M126.57 117.852V48.4413L124.422 52.1133V116.49L126.57 117.852Z" fill="#FCE7D4"/>
<path d="M48.6451 95.2879L46.4971 94.1626L126.57 48.4413L124.362 52.1133L48.6451 95.2879Z" fill="#FCE7D4"/>
<path d="M48.7646 115.898V113.647L67.2613 103.046L67.3807 84.6275L68.6337 83.8575V104.349L48.7646 115.898Z" fill="#C5B7AB"/>
<path d="M105.865 81.0148V79.1788L118.753 71.7165V55.3706L124.422 52.054V70.3544L105.865 81.0148Z" fill="#DCCEC1"/>
<path d="M68.5742 148.791V104.349L67.3809 105.06V149.478L68.5742 148.791Z" fill="#C5B7AB"/>
<path d="M140.83 17.9999L140.531 24.5739L33.7278 85.6342L28.1191 82.5546L140.83 17.9999Z" fill="#EBF2D2"/>
<path d="M211.714 108.021L209.805 109.324L209.686 141.838L211.714 140.832V108.021Z" fill="#515151"/>
<path d="M167.143 82.5547L165.353 83.8576L209.745 109.383L211.714 108.021L167.143 82.5547Z" fill="#959494"/>
<path d="M207.418 138.285L209.685 141.838L209.805 109.324L207.537 110.153L207.418 138.285Z" fill="#7E7C7C"/>
<path d="M165.293 116.49L167.441 115.187L207.477 138.285L209.745 141.838L165.293 116.49Z" fill="#7E7C7C"/>
<path d="M165.293 116.49V83.8576L167.441 87.4111V115.247L165.293 116.49Z" fill="#7E7C7C"/>
<path d="M167.381 87.4703L165.233 83.7983L209.804 109.324L207.597 110.212L167.381 87.4703Z" fill="#7E7C7C"/>
<path d="M167.382 115.247V87.4111L207.538 110.212V138.403L167.382 115.247Z" fill="#2D2C2C"/>
<path d="M71.2287 191.617C70.4528 189.708 69.7857 188.818 67.499 188.076L71.2287 185.876V191.617Z" fill="#3C3C3C"/>
<path d="M84.8502 178.096L81.9854 179.545L87.0124 182.389L88.5799 181.369C87.4363 179.763 86.5903 179.077 84.8502 178.096Z" fill="#3C3C3C"/>
<path d="M88.5796 181.369L86.958 182.389L89.3904 183.676L88.5796 181.369Z" fill="#595C5B"/>
<path d="M77.5534 177.077C75.8085 177.413 74.9288 177.858 73.6074 179.277L122.418 205.996C124.512 207.717 124.916 208.883 125.067 211.039L128.796 209.108C128.261 206.979 127.645 205.945 126.094 204.333L77.5534 177.077Z" fill="#717171"/>
<path d="M132.364 217.048L129.012 218.873L128.904 214.902L132.364 217.048Z" fill="#707271"/>
<path d="M129.012 218.873L125.283 220.965L125.066 210.986L128.796 209.054L129.012 218.873Z" fill="#3C3C3C"/>
<path d="M145.552 212.649L128.363 222.736V244.948L145.552 234.969V212.649Z" fill="#3C3C3C"/>
<path d="M71.7695 212.863V211.683L72.9047 212.327L71.7695 212.863Z" fill="#242424"/>
<path d="M71.7693 212.863V211.683L123.985 241.246V242.587L128.418 244.948V222.682L125.283 220.965L125.066 210.986C124.914 208.728 124.269 207.658 122.418 205.996L73.6071 179.277C72.225 179.56 71.5342 179.818 71.2287 181.369V191.617L71.0125 191.188C70.2432 189.378 69.415 188.755 67.499 188.076V210.449L71.7693 212.863Z" fill="#595C5B"/>
<path d="M128.471 222.736L125.282 220.965L142.904 211.147L145.552 212.649L128.471 222.736Z" fill="#595C5B"/>
<path d="M145.647 236.355L138.699 239.438L146.301 242.764L155.619 239.276L145.647 236.355Z" fill="#2D1108"/>
<path d="M155.619 239.276L146.873 243.738V255.664L155.619 251.202V239.276Z" fill="#84CDC8"/>
<path d="M146.873 255.664V243.738L137.31 239.438V250.147L146.873 255.664Z" fill="#BCF9F5"/>
<path d="M145.647 235.706L137.31 239.438H138.699L145.647 236.355V235.706Z" fill="#96DCD7"/>
<path d="M146.873 243.738L137.392 239.438H138.699L146.301 242.764L146.873 243.738Z" fill="#96DCD7"/>
<path d="M155.619 239.438L146.873 243.9L146.301 242.927L154.474 239.438H155.619Z" fill="#96DCD7"/>
<path d="M146.791 243.657L146.301 242.764L155.619 239.276L146.791 243.657Z" fill="#96DCD7"/>
<path d="M155.619 239.276L154.475 239.438L155.179 239.762L155.619 239.276Z" fill="#96DCD7"/>
<path d="M145.646 236.355L154.556 239.438L155.618 239.276L145.646 235.787V236.355Z" fill="#96DCD7"/>
<path d="M146.464 239.195L142.868 237.896L142.541 237.734L145.647 236.355L149.816 237.978L146.464 239.195Z" fill="#46DA4C"/>
<path d="M146.464 235.138V239.195L142.704 237.815L142.786 234.002L146.464 235.138Z" fill="#46DA4C"/>
<path d="M149.897 234.083L146.464 235.138V239.195L149.815 237.978L149.897 234.083Z" fill="#43C648"/>
<path d="M146.056 233.11L142.786 234.002L146.464 235.138L149.897 234.083L146.056 233.11Z" fill="#30CE36"/>
<path d="M146.627 230.595V234.651L142.867 233.272L142.949 229.459L146.627 230.595Z" fill="#46DA4C"/>
<path d="M150.061 229.54L146.628 230.595V234.651L149.979 233.434L150.061 229.54Z" fill="#43C648"/>
<path d="M146.219 228.566L142.949 229.459L146.627 230.595L150.06 229.54L146.219 228.566Z" fill="#30CE36"/>
<path d="M146.791 226.214V230.27L143.031 228.891L143.113 225.078L146.791 226.214Z" fill="#46DA4C"/>
<path d="M150.224 225.159L146.791 226.214V230.27L150.142 229.053L150.224 225.159Z" fill="#43C648"/>
<path d="M146.382 224.185L143.112 225.078L146.79 226.214L150.223 225.159L146.382 224.185Z" fill="#30CE36"/>
<path d="M146.464 223.699L143.194 224.591L146.872 225.727L150.305 224.672L146.464 223.699Z" fill="#30CE36"/>
<path d="M146.791 221.021L150.305 224.672L146.791 225.646L143.194 224.591L146.791 221.021Z" fill="#46DA4C"/>
<path d="M155.508 216.876L98.6455 184.243L135.878 162.863L192.501 195.496L155.508 216.876Z" fill="#EFEFEF"/>
<path d="M183.551 200.648L126.45 168.134L126.808 167.897L183.909 200.47L183.551 200.648Z" fill="#C4C4C4"/>
<path d="M183.91 200.47L126.809 167.956L127.167 167.719L184.268 200.293L183.91 200.47Z" fill="#939393"/>
<path d="M184.267 200.234L127.166 167.719L127.524 167.482L184.625 200.056L184.267 200.234Z" fill="#DDDDDD"/>
<path d="M183.551 200.648L126.45 168.134L126.808 167.897L183.909 200.47L183.551 200.648Z" fill="#C4C4C4"/>
<path d="M188.563 197.865L131.462 165.35L131.82 165.114L188.921 197.687L188.563 197.865Z" fill="#939393"/>
<path d="M188.921 197.628L131.82 165.113L132.178 164.877L189.279 197.45L188.921 197.628Z" fill="#DDDDDD"/>
<path d="M188.206 198.042L131.104 165.528L131.462 165.291L188.564 197.865L188.206 198.042Z" fill="#C4C4C4"/>
<path d="M186.416 199.168L129.314 166.653L129.672 166.416L186.774 198.99L186.416 199.168Z" fill="#939393"/>
<path d="M186.773 198.931L129.672 166.416L130.03 166.18L187.131 198.753L186.773 198.931Z" fill="#DDDDDD"/>
<path d="M186.057 199.345L128.956 166.831L129.314 166.594L186.415 199.168L186.057 199.345Z" fill="#C4C4C4"/>
<path d="M98.6455 185.013V184.243L155.508 216.876L192.501 195.496L192.561 196.206L155.448 217.468L98.6455 185.013Z" fill="#ADADAD"/>
<path d="M132.338 91.3423C138.051 89.4446 141.16 89.7108 146.623 91.3423L139.575 94.4619L132.338 91.3423Z" fill="#444444"/>
<path d="M149.004 103.912C141.996 108.932 137.812 109.355 129.672 103.912L132.243 91.2458C138.151 94.2359 141.271 94.166 146.528 91.2458L149.004 103.912Z" fill="#444444"/>
<ellipse cx="139.29" cy="145.125" rx="5.23774" ry="3.11935" fill="#737171"/>
<ellipse cx="139.29" cy="143.991" rx="5.23774" ry="3.11935" fill="#A9A9A9"/>
<path d="M140.623 144.086C139.605 144.542 139.087 144.532 138.147 144.086V107.693C139.171 107.952 139.708 107.925 140.623 107.693V144.086Z" fill="#868484"/>
<ellipse cx="139.576" cy="91.4348" rx="5.90436" ry="0.850731" fill="#5E5E5E"/>
<path d="M141.546 155.342V152.262L142.859 153.032V156.348L141.546 155.342Z" fill="#B6B1B1"/>
<path d="M176.271 175.419V172.813L177.763 173.701L177.703 176.248L176.271 175.419Z" fill="#B6B1B1"/>
<path d="M210.162 195.318V192.831L211.594 193.719V196.266L210.162 195.318Z" fill="#B6B1B1"/>
<path d="M149.958 130.645L138.801 137.396L215.234 181.104L226.63 174.649L149.958 130.645Z" fill="#FFFAF5"/>
<path d="M138.741 150.604V137.456L157.715 148.235V161.797L138.741 150.604Z" fill="#E2E2E2"/>
<path d="M157.715 161.797V148.294L157.894 148.412V161.915L157.715 161.797Z" fill="#818181"/>
<path d="M177.047 173.282V159.31L177.226 159.432V173.405L177.047 173.282Z" fill="#818181"/>
<path d="M196.141 184.532V170.207L196.32 170.333V184.658L196.141 184.532Z" fill="#818181"/>
<path d="M157.954 161.915V148.412L176.988 159.31V173.227L157.954 161.915Z" fill="#E2E2E2"/>
<path d="M177.286 173.405V159.428L196.141 170.266V184.539L177.286 173.405Z" fill="#E2E2E2"/>
<path d="M196.379 184.658V170.385L215.234 181.104V195.851L196.379 184.658Z" fill="#E2E2E2"/>
<path d="M215.354 195.733V181.163L226.571 174.767L226.631 189.277L215.354 195.733Z" fill="#D2D1D1"/>
<path d="M218.334 201.482V189.959H244.551V201.482C234.226 204.076 228.467 204.244 218.334 201.482Z" fill="#EBED82"/>
<ellipse cx="231.385" cy="189.959" rx="13.167" ry="1.27224" fill="#FBFDB0"/>
<ellipse cx="231.501" cy="189.959" rx="10.72" ry="1.04092" fill="#623737"/>
<path d="M237.152 161.623L231.676 190.306H232.899L237.152 161.623Z" fill="#5F8E5E"/>
<path d="M237.094 161.218L231.676 190.306L237.094 162.201V161.218Z" fill="#46DA4C"/>
<path d="M222.996 159.772L229.754 190.306H228.244L222.996 159.772Z" fill="#5F8E5E"/>
<path d="M223.112 159.31L229.754 190.306L223.112 160.357V159.31Z" fill="#46DA4C"/>
<path d="M233.716 160.582L231.618 190.19H230.803L233.716 160.582Z" fill="#5F8E5E"/>
<path d="M233.366 164.745L231.036 190.132V190.19H230.803L233.366 164.745Z" fill="#46DA4C"/>
<path d="M238.026 161.623L232.55 190.306H233.773L238.026 161.623Z" fill="#5F8E5E"/>
<path d="M237.968 161.218L232.55 190.306L237.968 162.201V161.218Z" fill="#46DA4C"/>
<path d="M234.589 160.582L232.491 190.19H231.676L234.589 160.582Z" fill="#5F8E5E"/>
<path d="M234.239 164.745L231.909 190.132V190.19H231.676L234.239 164.745Z" fill="#46DA4C"/>
<path d="M225.093 160.697L231.035 190.306H229.708L225.093 160.697Z" fill="#5F8E5E"/>
<path d="M225.209 160.35L231.035 190.306L225.209 161.363V160.35Z" fill="#46DA4C"/>
<path d="M228.822 159.772L231.087 190.306H231.968L228.822 159.772Z" fill="#5F8E5E"/>
<path d="M229.171 164.052L231.714 190.246V190.306H231.968L229.171 164.052Z" fill="#46DA4C"/>
<path d="M224.626 159.772L231.385 190.306H229.875L224.626 159.772Z" fill="#5F8E5E"/>
<path d="M224.743 159.31L231.385 190.306L224.743 160.357V159.31Z" fill="#46DA4C"/>
<path d="M226.724 160.697L232.667 190.306H231.339L226.724 160.697Z" fill="#5F8E5E"/>
<path d="M226.841 160.35L232.667 190.306L226.841 161.363V160.35Z" fill="#46DA4C"/>
<path d="M230.453 159.772L232.718 190.306H233.599L230.453 159.772Z" fill="#5F8E5E"/>
<path d="M230.802 164.052L233.344 190.246V190.306H233.599L230.802 164.052Z" fill="#46DA4C"/>
<path d="M151.642 198.275V198.073L150.893 197.87L151.642 198.275Z" fill="#3A3A3A"/>
<path d="M116.069 181.735L151.642 201.314V198.275L116.069 178.224V181.735Z" fill="#747474"/>
<path d="M176.332 187.068V183.828L151.642 198.073V201.381L176.332 187.068Z" fill="#242424"/>
<path d="M118.653 189.161L121.102 190.849V184.503L118.653 183.017V189.161Z" fill="#E0E0E0"/>
<path d="M123.551 189.499V185.853L121.102 184.435V190.849L123.551 189.499Z" fill="#CBCBCB"/>
<path d="M169.258 184.908L171.095 183.828L140.487 166.342V168.435L169.258 184.908Z" fill="#5C5C5C"/>
<path d="M140.487 168.435V166.342L120.898 177.684L123.211 179.102L123.279 178.427L140.487 168.435Z" fill="#444444"/>
<path d="M176.332 183.828H171.095L151.438 195.372L150.894 197.87L151.642 198.073L176.332 183.828Z" fill="#3A3A3A"/>
<path d="M141.575 163.574L176.332 183.828H171.095L140.487 166.342L120.83 177.684L151.438 195.372L150.894 197.87L116.137 178.157L141.575 163.574Z" fill="#3A3A3A"/>
<path d="M168.646 195.507L171.367 197.195V189.971L168.646 191.524V195.507Z" fill="#E0E0E0"/>
<path d="M171.366 197.195V189.971L173.543 188.756V195.777L171.366 197.195Z" fill="#CBCBCB"/>
<path d="M151.71 208.267V201.381L149.125 199.963V206.647L151.71 208.267Z" fill="#E0E0E0"/>
<path d="M154.159 206.85L151.71 208.267V201.314L154.227 199.896L154.159 206.85Z" fill="#CBCBCB"/>
</svg>
