<svg width="29" height="25" viewBox="0 0 29 25" fill="none" xmlns="http://www.w3.org/2000/svg">
<path d="M0.268297 0.584719C0.071546 1.49693 0 2.70427 0 3.50916C0 10.2792 4.04235 14.7508 10.2132 14.7508C13.245 14.7508 15.0425 13.4004 15.9369 12.4077C16.6702 13.4451 17.0816 14.5541 17.5467 16.0208C17.6808 16.459 17.9938 16.6378 18.3426 16.6378C19.0312 16.6378 19.5947 16.0387 19.5947 15.2159C19.5947 13.9728 17.7881 11.7906 16.8491 10.9142C12.8693 7.22955 6.8237 9.43853 5.31229 5.43196C5.20497 5.14578 5.5001 4.91325 5.7684 5.18155C8.8717 8.37429 12.923 5.7092 16.7775 9.24178C17.1174 9.5548 17.5377 9.39382 17.6003 9.02715C17.645 8.77673 17.6719 8.36535 17.6719 7.95396C17.6719 3.57176 14.6312 1.37173 10.24 1.37173C8.79121 1.37173 7.092 1.7384 5.7684 1.7384C4.34642 1.7384 2.73663 1.63108 1.43986 0.262762C1.02847 -0.166514 0.420333 -0.0770811 0.268297 0.584719Z" fill="#FFFAFA"/>
<path d="M23.7779 23.98C23.9325 23.8253 24.0073 23.6456 24.0021 23.441L23.9922 20.2434L27.1898 20.2533C27.4045 20.2484 27.5842 20.1737 27.7288 20.029C27.8735 19.8843 27.9458 19.7072 27.9456 19.4975C27.9455 19.2878 27.8704 19.108 27.7206 18.9581C27.5757 18.8133 27.3984 18.7407 27.1887 18.7406L23.9986 18.7382L23.9887 15.5257C23.9886 15.316 23.9186 15.1412 23.7787 15.0013C23.6288 14.8514 23.4503 14.7777 23.2431 14.78C23.0359 14.7823 22.86 14.8558 22.7153 15.0005C22.5806 15.1352 22.5109 15.3099 22.506 15.5246L22.5009 18.7521L19.2884 18.7572C19.0887 18.747 18.914 18.8168 18.7644 18.9664C18.6197 19.1111 18.5462 19.287 18.5438 19.4942C18.5415 19.7014 18.6153 19.8799 18.7652 20.0298C18.91 20.1747 19.0848 20.2447 19.2895 20.2399L22.4871 20.2497L22.497 23.4473C22.4921 23.652 22.5621 23.8268 22.707 23.9717C22.8569 24.1216 23.0367 24.1966 23.2464 24.1967C23.456 24.1969 23.6332 24.1246 23.7779 23.98Z" fill="#FFFAFA"/>
</svg>
