<svg width="32" height="32" viewBox="0 0 32 32" fill="none" xmlns="http://www.w3.org/2000/svg">
<path d="M9.0791 25.0067H22.9106C25.0903 25.0067 26.2253 23.8817 26.2253 21.7322V9.50783C26.2253 7.35828 25.0903 6.23328 22.9106 6.23328H9.0791C6.90946 6.23328 5.77441 7.34823 5.77441 9.50783V21.7322C5.77441 23.8817 6.90946 25.0067 9.0791 25.0067ZM9.06906 23.0078C8.23535 23.0078 7.7733 22.5759 7.7733 21.692V12.4509C7.7733 11.567 8.23535 11.1351 9.06906 11.1351H22.9206C23.7543 11.1351 24.2164 11.567 24.2164 12.4509V21.692C24.2164 22.5759 23.7543 23.0078 22.9206 23.0078H9.06906ZM14.0612 14.6005H14.6539C15.0155 14.6005 15.136 14.49 15.136 14.1384V13.5458C15.136 13.1842 15.0155 13.0737 14.6539 13.0737H14.0612C13.6996 13.0737 13.5791 13.1842 13.5791 13.5458V14.1384C13.5791 14.49 13.6996 14.6005 14.0612 14.6005ZM17.3458 14.6005H17.9385C18.29 14.6005 18.4106 14.49 18.4106 14.1384V13.5458C18.4106 13.1842 18.29 13.0737 17.9385 13.0737H17.3458C16.9842 13.0737 16.8637 13.1842 16.8637 13.5458V14.1384C16.8637 14.49 16.9842 14.6005 17.3458 14.6005ZM20.6204 14.6005H21.213C21.5746 14.6005 21.6952 14.49 21.6952 14.1384V13.5458C21.6952 13.1842 21.5746 13.0737 21.213 13.0737H20.6204C20.2688 13.0737 20.1483 13.1842 20.1483 13.5458V14.1384C20.1483 14.49 20.2688 14.6005 20.6204 14.6005ZM10.7867 17.8348H11.3693C11.7309 17.8348 11.8514 17.7243 11.8514 17.3627V16.7701C11.8514 16.4185 11.7309 16.3081 11.3693 16.3081H10.7867C10.4251 16.3081 10.3045 16.4185 10.3045 16.7701V17.3627C10.3045 17.7243 10.4251 17.8348 10.7867 17.8348ZM14.0612 17.8348H14.6539C15.0155 17.8348 15.136 17.7243 15.136 17.3627V16.7701C15.136 16.4185 15.0155 16.3081 14.6539 16.3081H14.0612C13.6996 16.3081 13.5791 16.4185 13.5791 16.7701V17.3627C13.5791 17.7243 13.6996 17.8348 14.0612 17.8348ZM17.3458 17.8348H17.9385C18.29 17.8348 18.4106 17.7243 18.4106 17.3627V16.7701C18.4106 16.4185 18.29 16.3081 17.9385 16.3081H17.3458C16.9842 16.3081 16.8637 16.4185 16.8637 16.7701V17.3627C16.8637 17.7243 16.9842 17.8348 17.3458 17.8348ZM20.6204 17.8348H21.213C21.5746 17.8348 21.6952 17.7243 21.6952 17.3627V16.7701C21.6952 16.4185 21.5746 16.3081 21.213 16.3081H20.6204C20.2688 16.3081 20.1483 16.4185 20.1483 16.7701V17.3627C20.1483 17.7243 20.2688 17.8348 20.6204 17.8348ZM10.7867 21.0592H11.3693C11.7309 21.0592 11.8514 20.9487 11.8514 20.5971V20.0045C11.8514 19.6429 11.7309 19.5324 11.3693 19.5324H10.7867C10.4251 19.5324 10.3045 19.6429 10.3045 20.0045V20.5971C10.3045 20.9487 10.4251 21.0592 10.7867 21.0592ZM14.0612 21.0592H14.6539C15.0155 21.0592 15.136 20.9487 15.136 20.5971V20.0045C15.136 19.6429 15.0155 19.5324 14.6539 19.5324H14.0612C13.6996 19.5324 13.5791 19.6429 13.5791 20.0045V20.5971C13.5791 20.9487 13.6996 21.0592 14.0612 21.0592ZM17.3458 21.0592H17.9385C18.29 21.0592 18.4106 20.9487 18.4106 20.5971V20.0045C18.4106 19.6429 18.29 19.5324 17.9385 19.5324H17.3458C16.9842 19.5324 16.8637 19.6429 16.8637 20.0045V20.5971C16.8637 20.9487 16.9842 21.0592 17.3458 21.0592Z" fill="#373737"/>
</svg>
