<svg width="32" height="32" viewBox="0 0 32 32" fill="none" xmlns="http://www.w3.org/2000/svg">
<path d="M9.0791 25.0067H22.9106C25.0903 25.0067 26.2253 23.8817 26.2253 21.7321V9.5078C26.2253 7.35825 25.0903 6.23325 22.9106 6.23325H9.0791C6.90946 6.23325 5.77441 7.3482 5.77441 9.5078V21.7321C5.77441 23.8817 6.90946 25.0067 9.0791 25.0067ZM9.06906 23.0078C8.23535 23.0078 7.7733 22.5759 7.7733 21.692V12.4509C7.7733 11.567 8.23535 11.135 9.06906 11.135H22.9206C23.7543 11.135 24.2164 11.567 24.2164 12.4509V21.692C24.2164 22.5759 23.7543 23.0078 22.9206 23.0078H9.06906ZM14.0612 14.6004H14.6539C15.0155 14.6004 15.136 14.4899 15.136 14.1384V13.5457C15.136 13.1841 15.0155 13.0736 14.6539 13.0736H14.0612C13.6996 13.0736 13.5791 13.1841 13.5791 13.5457V14.1384C13.5791 14.4899 13.6996 14.6004 14.0612 14.6004ZM17.3458 14.6004H17.9385C18.29 14.6004 18.4106 14.4899 18.4106 14.1384V13.5457C18.4106 13.1841 18.29 13.0736 17.9385 13.0736H17.3458C16.9842 13.0736 16.8637 13.1841 16.8637 13.5457V14.1384C16.8637 14.4899 16.9842 14.6004 17.3458 14.6004ZM20.6204 14.6004H21.213C21.5746 14.6004 21.6952 14.4899 21.6952 14.1384V13.5457C21.6952 13.1841 21.5746 13.0736 21.213 13.0736H20.6204C20.2688 13.0736 20.1483 13.1841 20.1483 13.5457V14.1384C20.1483 14.4899 20.2688 14.6004 20.6204 14.6004ZM10.7867 17.8348H11.3693C11.7309 17.8348 11.8514 17.7243 11.8514 17.3627V16.7701C11.8514 16.4185 11.7309 16.308 11.3693 16.308H10.7867C10.4251 16.308 10.3045 16.4185 10.3045 16.7701V17.3627C10.3045 17.7243 10.4251 17.8348 10.7867 17.8348ZM14.0612 17.8348H14.6539C15.0155 17.8348 15.136 17.7243 15.136 17.3627V16.7701C15.136 16.4185 15.0155 16.308 14.6539 16.308H14.0612C13.6996 16.308 13.5791 16.4185 13.5791 16.7701V17.3627C13.5791 17.7243 13.6996 17.8348 14.0612 17.8348ZM17.3458 17.8348H17.9385C18.29 17.8348 18.4106 17.7243 18.4106 17.3627V16.7701C18.4106 16.4185 18.29 16.308 17.9385 16.308H17.3458C16.9842 16.308 16.8637 16.4185 16.8637 16.7701V17.3627C16.8637 17.7243 16.9842 17.8348 17.3458 17.8348ZM20.6204 17.8348H21.213C21.5746 17.8348 21.6952 17.7243 21.6952 17.3627V16.7701C21.6952 16.4185 21.5746 16.308 21.213 16.308H20.6204C20.2688 16.308 20.1483 16.4185 20.1483 16.7701V17.3627C20.1483 17.7243 20.2688 17.8348 20.6204 17.8348ZM10.7867 21.0591H11.3693C11.7309 21.0591 11.8514 20.9486 11.8514 20.5971V20.0045C11.8514 19.6428 11.7309 19.5324 11.3693 19.5324H10.7867C10.4251 19.5324 10.3045 19.6428 10.3045 20.0045V20.5971C10.3045 20.9486 10.4251 21.0591 10.7867 21.0591ZM14.0612 21.0591H14.6539C15.0155 21.0591 15.136 20.9486 15.136 20.5971V20.0045C15.136 19.6428 15.0155 19.5324 14.6539 19.5324H14.0612C13.6996 19.5324 13.5791 19.6428 13.5791 20.0045V20.5971C13.5791 20.9486 13.6996 21.0591 14.0612 21.0591ZM17.3458 21.0591H17.9385C18.29 21.0591 18.4106 20.9486 18.4106 20.5971V20.0045C18.4106 19.6428 18.29 19.5324 17.9385 19.5324H17.3458C16.9842 19.5324 16.8637 19.6428 16.8637 20.0045V20.5971C16.8637 20.9486 16.9842 21.0591 17.3458 21.0591Z" fill="#FFFAFA"/>
</svg>
