<svg width="35" height="35" viewBox="0 0 35 35" fill="none" xmlns="http://www.w3.org/2000/svg">
<circle cx="17.5" cy="17.5" r="17.5" fill="#808080"/>
<path d="M10.3468 16.6901C11.8952 16.6901 12.1048 16.0827 12.8145 16.0827C12.9839 16.0827 13.1048 16.1143 13.3065 16.2168L14.5081 16.8479C14.6855 16.9425 14.8306 17.0293 14.9516 17.0924H15.0081C15.2097 16.3746 15.4919 15.9486 16.0242 15.6015V15.5384L14.3548 14.6707C13.7661 14.3631 13.7016 14.1185 13.7016 13.4086C13.7016 11.5785 12.2097 10.1113 10.3468 10.1113C8.48387 10.1113 7 11.5785 7 13.4086C7 15.2229 8.48387 16.6901 10.3468 16.6901ZM10.3468 15.1992C9.34677 15.1992 8.54032 14.3867 8.54032 13.4086C8.54032 12.3989 9.34677 11.6101 10.3468 11.6101C11.3629 11.6101 12.1694 12.3989 12.1694 13.4086C12.1694 14.3867 11.3629 15.1992 10.3468 15.1992ZM10.3468 25.6669C12.2097 25.6669 13.7016 24.2076 13.7016 22.3696C13.7016 21.707 13.75 21.4309 14.2742 21.1548L28 14.0318C27.6694 12.7854 26.2823 12.5251 24.2097 13.2508L17.2339 15.7041C16.2339 16.059 15.7903 16.5481 15.5242 17.4553L15.3548 18.0469C15.2339 18.4728 15.0323 18.67 14.3629 19.0092L13.3065 19.5614C13.0887 19.6718 12.9758 19.7034 12.8145 19.7034C12.121 19.7034 11.8871 19.0881 10.3468 19.0881C8.48387 19.0881 7 20.5553 7 22.3696C7 24.1997 8.48387 25.6669 10.3468 25.6669ZM17.4032 18.0784C17.0484 18.0784 16.7339 17.7866 16.7339 17.4237C16.7339 17.053 17.0484 16.7611 17.4032 16.7611C17.7823 16.7611 18.0887 17.053 18.0887 17.4237C18.0887 17.7866 17.7823 18.0784 17.4032 18.0784ZM24.2097 22.5195C26.2903 23.2689 27.6694 22.9928 28 21.7149L21.2742 18.2362L17.7581 20.0505V20.153L24.2097 22.5195ZM10.3468 24.1681C9.34677 24.1681 8.54032 23.3635 8.54032 22.3696C8.54032 21.3836 9.34677 20.579 10.3468 20.579C11.3629 20.579 12.1694 21.3836 12.1694 22.3696C12.1694 23.3635 11.3629 24.1681 10.3468 24.1681Z" fill="#FFFAFA"/>
</svg>
