<svg width="37" height="37" viewBox="0 0 37 37" fill="none" xmlns="http://www.w3.org/2000/svg">
<circle cx="18.5" cy="18.5" r="18.5" fill="#019973"/>
<path d="M12.1917 18.4217C12.0511 19.0797 12 19.9504 12 20.531C12 25.4138 14.8882 28.639 19.2971 28.639C21.4633 28.639 22.7476 27.665 23.3866 26.949C23.9105 27.6972 24.2045 28.4971 24.5367 29.5549C24.6326 29.871 24.8562 30 25.1054 30C25.5974 30 26 29.5678 26 28.9744C26 28.0778 24.7093 26.5039 24.0383 25.8718C21.1949 23.2143 16.8754 24.8075 15.7955 21.9178C15.7188 21.7114 15.9297 21.5437 16.1214 21.7372C18.3387 24.0399 21.2332 22.1177 23.9872 24.6656C24.23 24.8914 24.5304 24.7753 24.5751 24.5108C24.607 24.3302 24.6262 24.0335 24.6262 23.7368C24.6262 20.5761 22.4537 18.9894 19.3163 18.9894C18.2811 18.9894 17.0671 19.2538 16.1214 19.2538C15.1054 19.2538 13.9553 19.1764 13.0288 18.1895C12.7348 17.8799 12.3003 17.9444 12.1917 18.4217Z" fill="#FFFAFA"/>
<ellipse cx="16.5" cy="10" rx="0.5" ry="1" fill="#FFFAFA"/>
<ellipse cx="19" cy="7.5" rx="1" ry="0.5" fill="#FFFAFA"/>
<ellipse cx="21.5" cy="13" rx="0.5" ry="1" fill="#FFFAFA"/>
<ellipse cx="15" cy="16.5" rx="1" ry="0.5" fill="#FFFAFA"/>
<ellipse cx="21.5" cy="10" rx="0.5" ry="1" fill="#FFFAFA"/>
<ellipse cx="19" cy="11.5" rx="1" ry="0.5" fill="#FFFAFA"/>
<circle cx="18" cy="15" r="1" fill="#FFFAFA"/>
<circle cx="21.5" cy="16.5" r="0.5" fill="#FFFAFA"/>
<circle cx="15" cy="13" r="1" fill="#FFFAFA"/>
</svg>
