<svg width="232" height="238" viewBox="0 0 232 238" fill="none" xmlns="http://www.w3.org/2000/svg">
<rect width="232" height="237.759" rx="16" fill="#D5FDF4"/>
<path d="M111.09 106.811L69.3496 125.471L115.018 145.605L170.999 124.489L111.09 106.811Z" fill="#2D1108"/>
<path d="M170.997 124.489L118.453 151.497V223.683L170.997 196.675V124.489Z" fill="#84CDC8"/>
<path d="M118.454 223.683V151.497L61 125.471V190.291L118.454 223.683Z" fill="#BCF9F5"/>
<path d="M111.088 102.882L61 125.471H69.348L111.088 106.81V102.882Z" fill="#96DCD7"/>
<path d="M118.451 151.497L61.4883 125.471H69.3453L115.014 145.605L118.451 151.497Z" fill="#96DCD7"/>
<path d="M170.999 125.471L118.455 152.479L115.018 146.587L164.124 125.471H170.999Z" fill="#96DCD7"/>
<path d="M117.964 151.006L115.018 145.605L170.999 124.489L117.964 151.006Z" fill="#96DCD7"/>
<path d="M170.998 124.489L164.123 125.471L168.354 127.435L170.998 124.489Z" fill="#96DCD7"/>
<path d="M111.091 106.811L164.617 125.471L171 124.489L111.091 103.373V106.811Z" fill="#96DCD7"/>
<path d="M115.999 123.998L94.392 116.141L92.4277 115.159L111.088 106.811L136.132 116.632L115.999 123.998Z" fill="#46DA4C"/>
<path d="M115.999 99.4445V123.998L93.4102 115.65L93.9012 92.5696L115.999 99.4445Z" fill="#46DA4C"/>
<path d="M136.626 93.0609L116.001 99.4447V123.998L136.135 116.632L136.626 93.0609Z" fill="#43C648"/>
<path d="M113.542 87.1681L93.8994 92.5698L115.997 99.4446L136.622 93.0608L113.542 87.1681Z" fill="#30CE36"/>
<path d="M116.98 71.9451V96.4982L94.3916 88.1501L94.8827 65.0703L116.98 71.9451Z" fill="#46DA4C"/>
<path d="M137.607 65.5615L116.982 71.9453V96.4984L137.116 89.1325L137.607 65.5615Z" fill="#43C648"/>
<path d="M114.527 59.6688L94.8848 65.0704L116.983 71.9453L137.607 65.5615L114.527 59.6688Z" fill="#30CE36"/>
<path d="M117.963 45.428V69.9811L95.374 61.633L95.8651 38.5531L117.963 45.428Z" fill="#46DA4C"/>
<path d="M138.589 39.0441L117.965 45.4279V69.981L138.098 62.6151L138.589 39.0441Z" fill="#43C648"/>
<path d="M115.51 33.1513L95.8672 38.553L117.965 45.4279L138.59 39.0441L115.51 33.1513Z" fill="#30CE36"/>
<path d="M115.999 30.2051L96.3564 35.6068L118.454 42.4816L139.079 36.0978L115.999 30.2051Z" fill="#30CE36"/>
<path d="M117.963 14L139.079 36.0978L117.963 41.9905L96.3564 35.6067L117.963 14Z" fill="#46DA4C"/>
</svg>
