<svg width="21" height="21" viewBox="0 0 21 21" fill="none" xmlns="http://www.w3.org/2000/svg">
<path d="M4.65356 9.42993C5.91919 9.42993 6.09058 8.92236 6.67065 8.92236C6.80908 8.92236 6.90796 8.94873 7.07275 9.03442L8.05493 9.56177C8.19995 9.64087 8.3186 9.71338 8.41748 9.76611H8.46362C8.62842 9.16626 8.85913 8.8103 9.29419 8.52026V8.46753L7.92969 7.74243C7.44849 7.48535 7.39575 7.28101 7.39575 6.68774C7.39575 5.15845 6.17627 3.93237 4.65356 3.93237C3.13086 3.93237 1.91797 5.15845 1.91797 6.68774C1.91797 8.20386 3.13086 9.42993 4.65356 9.42993ZM4.65356 8.18408C3.83618 8.18408 3.177 7.50513 3.177 6.68774C3.177 5.84399 3.83618 5.18481 4.65356 5.18481C5.48413 5.18481 6.14331 5.84399 6.14331 6.68774C6.14331 7.50513 5.48413 8.18408 4.65356 8.18408ZM4.65356 16.9314C6.17627 16.9314 7.39575 15.7119 7.39575 14.176C7.39575 13.6223 7.4353 13.3916 7.86377 13.1609L19.083 7.2085C18.8127 6.16699 17.679 5.94946 15.9849 6.55591L10.283 8.60596C9.46558 8.90259 9.10303 9.31128 8.8855 10.0693L8.74707 10.5637C8.64819 10.9197 8.4834 11.0845 7.93628 11.3679L7.07275 11.8293C6.89478 11.9216 6.80249 11.948 6.67065 11.948C6.10376 11.948 5.9126 11.4338 4.65356 11.4338C3.13086 11.4338 1.91797 12.6599 1.91797 14.176C1.91797 15.7053 3.13086 16.9314 4.65356 16.9314ZM10.4214 10.5901C10.1313 10.5901 9.87427 10.3462 9.87427 10.043C9.87427 9.73315 10.1313 9.48926 10.4214 9.48926C10.7312 9.48926 10.9817 9.73315 10.9817 10.043C10.9817 10.3462 10.7312 10.5901 10.4214 10.5901ZM15.9849 14.3013C17.6855 14.9275 18.8127 14.6968 19.083 13.6289L13.5854 10.7219L10.7114 12.238V12.3237L15.9849 14.3013ZM4.65356 15.679C3.83618 15.679 3.177 15.0066 3.177 14.176C3.177 13.3521 3.83618 12.6797 4.65356 12.6797C5.48413 12.6797 6.14331 13.3521 6.14331 14.176C6.14331 15.0066 5.48413 15.679 4.65356 15.679Z" fill="#808080"/>
</svg>
