<svg width="232" height="238" viewBox="0 0 232 238" fill="none" xmlns="http://www.w3.org/2000/svg">
<rect width="232" height="237.759" rx="16" fill="#D5FDF4"/>
<path d="M111.598 125.291L76.0996 141.161L114.939 158.284L162.548 140.326L111.598 125.291Z" fill="#2D1108"/>
<path d="M162.548 140.326L117.862 163.295V224.686L162.548 201.717V140.326Z" fill="#DDB1C1"/>
<path d="M117.862 224.686V163.295L69 141.161V196.288L117.862 224.686Z" fill="#ECD4DD"/>
<path d="M111.598 121.95L69 141.161H76.0997L111.598 125.291V121.95Z" fill="#EABCCD"/>
<path d="M117.863 163.295L69.418 141.161H76.1L114.939 158.284L117.863 163.295Z" fill="#EABCCD"/>
<path d="M162.548 141.161L117.862 164.13L114.938 159.119L156.701 141.161H162.548Z" fill="#EABCCD"/>
<path d="M117.444 162.878L114.938 158.284L162.548 140.326L117.444 162.878Z" fill="#EABCCD"/>
<path d="M162.548 140.326L156.701 141.161L160.299 142.831L162.548 140.326Z" fill="#EABCCD"/>
<path d="M111.6 125.291L157.121 141.161L162.55 140.326L111.6 122.368V125.291Z" fill="#EABCCD"/>
<path d="M116.659 143.732C110.563 143.682 108.146 142.688 105.774 139.025V99.8993C106.656 99.3113 105.535 101.01 116.659 99.8993C118.857 100.314 120.369 100.336 123.718 99.8993V140.496C122.209 142.366 120.363 142.929 116.659 143.732Z" fill="#533030"/>
<ellipse cx="116.361" cy="93.7221" rx="40.3023" ry="25.0051" fill="#43C648"/>
<ellipse cx="116.363" cy="55.1848" rx="27.9469" ry="20.5924" fill="#43C648"/>
<ellipse cx="116.658" cy="26.3555" rx="17.0623" ry="12.3555" fill="#43C648"/>
</svg>
