<svg width="14" height="19" viewBox="0 0 14 19" fill="none" xmlns="http://www.w3.org/2000/svg">
<path d="M2.16755 13.775C1.16544 9.2654 4.92338 2 6.42657 2C7.92977 2 13.4414 9.51593 11.6877 13.775C9.93401 18.034 3.16965 18.2845 2.16755 13.775Z" fill="#45A6FF"/>
<path d="M2.16755 13.775L0.947311 14.0461L2.16755 13.775ZM11.6877 13.775L10.5319 13.299L11.6877 13.775ZM6.42657 0.75C5.77999 0.75 5.26633 1.10993 4.96243 1.36763C4.61497 1.66228 4.28268 2.04863 3.97601 2.46922C3.35797 3.31681 2.73431 4.45545 2.20553 5.71132C1.16966 8.17151 0.361614 11.4104 0.947311 14.0461L3.38778 13.5038C2.97137 11.6299 3.54124 8.98136 4.50962 6.68146C4.98295 5.55729 5.518 4.59773 5.99603 3.94214C6.23739 3.61113 6.43749 3.39465 6.57934 3.27436C6.76476 3.11712 6.69736 3.25 6.42657 3.25V0.75ZM6.42657 3.25C6.18512 3.25 6.15346 3.14576 6.41621 3.33874C6.61773 3.48674 6.88739 3.73278 7.20427 4.08152C7.8339 4.77446 8.55485 5.76758 9.18713 6.8998C9.8203 8.03361 10.3374 9.25853 10.5975 10.413C10.8604 11.5805 10.8356 12.5615 10.5319 13.299L12.8436 14.2509C13.4167 12.8589 13.3606 11.3032 13.0364 9.86369C12.7092 8.41106 12.0833 6.95843 11.3698 5.68088C10.6555 4.40175 9.82632 3.24969 9.05454 2.4003C8.67071 1.97788 8.27686 1.60346 7.89609 1.3238C7.57654 1.08911 7.04383 0.75 6.42657 0.75V3.25ZM0.947311 14.0461C1.60932 17.0252 4.19915 18.351 6.66501 18.313C9.10533 18.2755 11.7429 16.924 12.8436 14.2509L10.5319 13.299C9.87886 14.8849 8.25737 15.7882 6.62655 15.8133C5.02128 15.838 3.72788 15.0343 3.38778 13.5038L0.947311 14.0461Z" fill="#45A6FF"/>
<path d="M7.51172 14.0254C8.97376 13.2881 9.31878 12.5703 9.51597 11.019" stroke="#FFFAFA" stroke-width="2.5" stroke-linecap="round"/>
</svg>
