<svg width="22" height="22" viewBox="0 0 22 22" fill="none" xmlns="http://www.w3.org/2000/svg">
<path d="M11 22C17.0165 22 22 17.0271 22 11C22 4.98354 17.0165 0 10.9894 0C4.97289 0 0 4.98354 0 11C0 17.0271 4.98354 22 11 22ZM11 19.8383C6.10165 19.8383 2.17231 15.8984 2.17231 11C2.17231 6.10165 6.091 2.17231 10.9894 2.17231C15.8877 2.17231 19.8277 6.10165 19.8383 11C19.8383 15.8984 15.8984 19.8383 11 19.8383ZM5.84608 7.00678C5.76089 7.48596 5.68635 8.12488 5.68635 8.55082C5.68635 12.1075 7.81607 14.4608 11.0532 14.4608C12.6505 14.4608 13.5983 13.7473 14.0668 13.2256C14.4501 13.758 14.6631 14.3437 14.9187 15.1317C14.9826 15.3553 15.153 15.4511 15.3233 15.4511C15.6854 15.4511 15.9835 15.1317 15.9835 14.7057C15.9835 14.0455 15.0358 12.9061 14.5353 12.4482C12.4376 10.5208 9.27493 11.6709 8.48693 9.55179C8.42304 9.40271 8.58277 9.28558 8.73185 9.41336C10.4676 10.8935 12.4802 9.71152 14.5034 11.5537C14.6844 11.7241 14.8974 11.6389 14.94 11.4579C14.9613 11.3088 14.9719 11.0958 14.9719 10.8935C14.9719 8.58277 13.3746 7.43272 11.0745 7.43272C10.3078 7.43272 9.41336 7.62439 8.7212 7.62439C7.9758 7.62439 7.13456 7.54985 6.4424 6.84705C6.21878 6.63408 5.90997 6.66602 5.84608 7.00678Z" fill="#019973"/>
</svg>
