<svg width="16" height="16" viewBox="0 0 16 16" fill="none" xmlns="http://www.w3.org/2000/svg">
<path d="M7.99503 16C9.09143 16 10.1218 15.7918 11.0861 15.3755C12.0504 14.9591 12.9007 14.3808 13.6372 13.6406C14.3736 12.9004 14.9515 12.0479 15.3709 11.083C15.7903 10.1181 16 9.09045 16 8C16 6.90955 15.7903 5.88187 15.3709 4.91697C14.9515 3.95208 14.3719 3.09954 13.6322 2.35936C12.8925 1.61916 12.0405 1.04089 11.0762 0.624542C10.1119 0.208181 9.08152 0 7.98513 0C6.89536 0 5.86832 0.208181 4.90403 0.624542C3.93974 1.04089 3.09102 1.61916 2.35789 2.35936C1.62476 3.09954 1.0485 3.95208 0.629101 4.91697C0.2097 5.88187 0 6.90955 0 8C0 9.09045 0.2097 10.1181 0.629101 11.083C1.0485 12.0479 1.62641 12.9004 2.36284 13.6406C3.09928 14.3808 3.94964 14.9591 4.91393 15.3755C5.87822 15.7918 6.90526 16 7.99503 16ZM7.99503 14.4932C7.09679 14.4932 6.25634 14.3263 5.47369 13.9926C4.69101 13.6588 4.00412 13.1945 3.413 12.5997C2.82187 12.005 2.35954 11.3143 2.02601 10.5279C1.69247 9.74143 1.5257 8.8988 1.5257 8C1.5257 7.1012 1.69082 6.25857 2.02106 5.47211C2.35129 4.68567 2.81197 3.99504 3.40309 3.40024C3.99422 2.80545 4.68111 2.34118 5.46376 2.00744C6.24644 1.67369 7.08689 1.50682 7.98513 1.50682C8.88999 1.50682 9.73375 1.67369 10.5164 2.00744C11.2991 2.34118 11.9876 2.80545 12.582 3.40024C13.1765 3.99504 13.6421 4.68567 13.9789 5.47211C14.3158 6.25857 14.4842 7.1012 14.4842 8C14.4842 8.8988 14.3174 9.74143 13.9839 10.5279C13.6503 11.3143 13.188 12.005 12.5969 12.5997C12.0058 13.1945 11.3172 13.6588 10.5313 13.9926C9.7453 14.3263 8.89989 14.4932 7.99503 14.4932Z" fill="#CA9EED"/>
<path d="M4.39849 10.1214L4.73534 12.3122C4.77497 12.5766 4.90376 12.7088 5.12172 12.7088C5.234 12.7088 5.32647 12.6675 5.39912 12.5848C5.47177 12.5022 5.49819 12.3915 5.47837 12.2528L5.17124 10.2602C5.14483 10.0685 5.2538 9.93635 5.49817 9.86366C5.54441 9.85043 5.5923 9.83721 5.64185 9.824C5.69138 9.81078 5.73926 9.79756 5.7855 9.78435C5.75247 9.89669 5.73595 10.0421 5.73595 10.2205C5.73595 10.6898 5.83997 11.1292 6.04803 11.539C6.25608 11.9487 6.53183 12.2825 6.87528 12.5402C7.21872 12.798 7.59519 12.9269 8.00469 12.9269C8.40758 12.9269 8.78074 12.798 9.12418 12.5402C9.46763 12.2825 9.74338 11.9487 9.95143 11.539C10.1595 11.1292 10.2635 10.6898 10.2635 10.2205C10.2635 10.0421 10.247 9.89669 10.214 9.78435C10.2668 9.79756 10.3164 9.81078 10.3626 9.824C10.4088 9.83721 10.4584 9.85043 10.5112 9.86366C10.749 9.93635 10.8546 10.0685 10.8282 10.2602L10.5211 12.2528C10.5013 12.3915 10.5277 12.5022 10.6003 12.5848C10.673 12.6675 10.7655 12.7088 10.8777 12.7088C11.0957 12.7088 11.2245 12.5766 11.2641 12.3122L11.601 10.1214C11.6868 9.65217 11.4656 9.35147 10.9372 9.2193L9.0053 8.76329C9.17702 8.7038 9.29921 8.5551 9.37186 8.31718L10.6796 8.13875C10.9438 8.09909 11.1386 8.00161 11.2641 7.84631C11.3896 7.691 11.4523 7.48117 11.4523 7.21682V5.7199C11.4523 5.46878 11.3269 5.34321 11.0759 5.34321C10.8315 5.34321 10.7093 5.46878 10.7093 5.7199V7.05819C10.7093 7.20359 10.6713 7.30272 10.5954 7.3556C10.5194 7.40847 10.4187 7.44482 10.2932 7.46465L9.36195 7.59351C9.33554 7.45473 9.26619 7.34239 9.1539 7.25647C9.86061 7.12429 10.214 6.71784 10.214 6.03713C10.214 5.52826 10.0588 5.07225 9.74833 4.6691L9.76816 4.64928C10.2173 4.33205 10.2998 3.91569 10.0158 3.4002L9.82758 3.04332C9.73512 2.88472 9.61623 2.80542 9.47093 2.80542C9.37186 2.80542 9.2893 2.83681 9.22325 2.89958C9.1572 2.96237 9.12418 3.04333 9.12418 3.14246C9.12418 3.22176 9.144 3.29446 9.18363 3.36055L9.33223 3.62821C9.46433 3.85291 9.47094 4.01152 9.35205 4.10404L9.25298 4.20318C8.86329 3.94543 8.4472 3.81656 8.00469 3.81656C7.55557 3.81656 7.13617 3.94543 6.74648 4.20318L6.64741 4.10404C6.57476 4.05117 6.54669 3.98178 6.5632 3.89586C6.57971 3.80995 6.61438 3.72074 6.66723 3.62821L6.81583 3.36055C6.85546 3.29446 6.87528 3.22176 6.87528 3.14246C6.87528 3.04333 6.84391 2.96237 6.78116 2.89958C6.71841 2.83681 6.6342 2.80542 6.52853 2.80542C6.37001 2.80542 6.25113 2.88472 6.17188 3.04332L5.98363 3.4002C5.71944 3.92891 5.80531 4.34527 6.24123 4.64928L6.26103 4.6691C5.94401 5.07225 5.7855 5.52826 5.7855 6.03713C5.7855 6.71784 6.14215 7.12429 6.85546 7.25647C6.73657 7.34239 6.66392 7.45473 6.63751 7.59351L5.70622 7.46465C5.58074 7.45142 5.48002 7.41673 5.40407 7.36056C5.32812 7.30437 5.29014 7.20359 5.29014 7.05819V5.7199C5.29014 5.46878 5.16795 5.34321 4.92357 5.34321C4.67258 5.34321 4.54709 5.46878 4.54709 5.7199V7.21682C4.54709 7.48117 4.61149 7.691 4.74029 7.84631C4.86908 8.00161 5.06226 8.09909 5.31985 8.13875L6.6276 8.31718C6.70025 8.5551 6.82244 8.7038 6.99416 8.76329L5.06227 9.2193C4.5405 9.33826 4.31924 9.63896 4.39849 10.1214Z" fill="#CA9EED"/>
</svg>
