<svg width="120" height="120" viewBox="0 0 120 120" fill="none" xmlns="http://www.w3.org/2000/svg">
<rect width="120" height="120" fill="#FFFAFA"/>
<path d="M37.5975 29.1881C36.5242 30.5372 35.4165 32.4776 34.757 33.8104C29.21 45.02 32.2414 55.7371 42.4621 60.7947C47.4835 63.2796 51.5673 62.5169 53.862 61.6062C54.2266 63.925 53.9993 66.0983 53.5679 68.908C53.431 69.7435 53.8029 70.2962 54.3806 70.5821C55.5211 71.1465 56.9453 70.6162 57.6194 69.2538C58.638 67.1955 57.4338 62.1017 56.5966 59.8809C53.024 50.5182 41.2007 49.2208 41.9802 41.348C42.0369 40.7862 42.7163 40.6431 42.9408 41.3072C45.4648 49.1372 54.3585 48.0448 57.8483 57.0532C58.1547 57.85 58.9828 57.928 59.3869 57.3721C59.6662 56.9942 60.0477 56.335 60.3848 55.6538C63.9753 48.3979 60.7416 42.263 53.4687 38.664C51.069 37.4766 47.9542 36.691 45.762 35.6062C43.4068 34.4407 40.8284 32.9436 39.8017 29.6152C39.4721 28.5672 38.3915 28.2169 37.5975 29.1881Z" fill="#019973"/>
<path d="M95.5042 46.7644C95.8678 48.4496 96 50.6801 96 52.167C96 64.674 88.5298 72.9349 77.1262 72.9349C71.5236 72.9349 68.2017 70.4402 66.549 68.6062C65.1938 70.5228 64.4335 72.5715 63.5741 75.281C63.3262 76.0906 62.7478 76.421 62.1032 76.421C60.8307 76.421 59.7895 75.3141 59.7895 73.7941C59.7895 71.4975 63.1279 67.4662 64.8632 65.8471C72.2177 59.0401 83.3899 63.121 86.183 55.7192C86.3813 55.1905 85.8359 54.761 85.3401 55.2566C79.6053 61.1549 72.1186 56.2314 64.9955 62.7575C64.3674 63.3358 63.5907 63.0384 63.475 62.361C63.3923 61.8984 63.3428 61.1384 63.3428 60.3784C63.3428 52.2827 68.9619 48.2183 77.0767 48.2183C79.754 48.2183 82.8941 48.8957 85.3401 48.8957C87.9679 48.8957 90.9428 48.6975 93.3392 46.1696C94.0994 45.3766 95.2232 45.5418 95.5042 46.7644Z" fill="#019973"/>
<path d="M86.2105 91.2632H31.8947C35.1662 86.9977 37.5346 85.6173 43.2632 86C44.7168 78.966 46.6198 77.2597 50.4211 75.0527C51.3431 72.0987 53.1579 67.7895 55.6842 66.9474C58.2105 66.1053 58.8507 72.882 59.1579 72.4211C59.4651 71.9603 61.5829 73.5302 62.7368 75.0527C67.806 75.9253 70.0432 78.1473 73.2632 84.3158C80.1064 84.3724 82.6236 86.3659 86.2105 91.2632Z" fill="#9D8351"/>
</svg>
