<svg width="13" height="13" viewBox="0 0 13 13" fill="none" xmlns="http://www.w3.org/2000/svg">
<g clip-path="url(#clip0_155_1180)">
<path d="M6.5 2.90002C6.26325 2.90002 6.06032 2.98151 5.88444 3.15703L0.729988 8.03381C0.581172 8.17172 0.5 8.34723 0.5 8.55409C0.5 8.9678 0.851748 9.30002 1.30496 9.30002C1.52818 9.30002 1.72435 9.21227 1.87993 9.07436L6.5 4.68024L11.1201 9.07436C11.2756 9.21227 11.4786 9.30002 11.695 9.30002C12.1483 9.30002 12.5 8.9678 12.5 8.55409C12.5 8.34723 12.4188 8.17172 12.27 8.03381L7.12232 3.15703C6.93968 2.98151 6.73675 2.90002 6.5 2.90002Z" fill="#373737"/>
</g>
<defs>
<clipPath id="clip0_155_1180">
<rect width="12" height="12" fill="white" transform="translate(12.5 0.5) rotate(90)"/>
</clipPath>
</defs>
</svg>
