<svg width="232" height="238" viewBox="0 0 232 238" fill="none" xmlns="http://www.w3.org/2000/svg">
<rect width="232" height="237.759" rx="16" fill="#D5FDF4"/>
<path d="M93.7271 26.4898C92.3222 37.491 93.1612 43.4838 99.8343 53.536L119.899 73.6026L132.986 65.7504C138.993 61.1704 142.031 57.8718 146.073 49.1737C142.551 46.7942 140.176 45.8966 133.858 46.5564C136.542 37.8757 136.336 32.7799 130.369 23C118.138 25.6921 113.694 29.9301 106.812 38.7042C105.494 34.2127 102.72 31.5483 93.7271 26.4898Z" fill="#A72828"/>
<path d="M122.52 114.607C109.969 111.28 102.78 111.079 89.3662 114.607L109.433 135.547L122.52 114.607Z" fill="#EDEDED"/>
<path d="M122.52 210.579C112.717 215.269 106.78 217.245 89.3662 210.579V114.608C103.229 120.757 110.461 120.344 122.52 114.608V210.579Z" fill="white"/>
<path d="M136.473 64.0053L112.044 116.353H105.064L119.896 72.7299L136.473 64.0053Z" fill="#335E29"/>
<path d="M119.898 72.7299L105.067 116.353L91.9797 88.4342L102.449 70.985L85 39.5765L119.898 72.7299Z" fill="#579648"/>
<path d="M91.9824 88.4342L105.069 116.353L95.4723 113.735L91.9824 88.4342Z" fill="#6ABF56"/>
</svg>
