<svg width="15" height="15" viewBox="0 0 15 15" fill="none" xmlns="http://www.w3.org/2000/svg">
<path d="M7.1166 10.5777C7.74342 10.5777 8.3196 10.4194 8.84514 10.1028C9.37068 9.78617 9.79257 9.36643 10.1108 8.84355C10.429 8.32066 10.5881 7.74261 10.5881 7.10938C10.5881 6.47614 10.429 5.89809 10.1108 5.3752C9.79257 4.85232 9.37068 4.43257 8.84514 4.11594C8.3196 3.79933 7.74342 3.64103 7.1166 3.64103C6.48017 3.64103 5.89917 3.79933 5.37361 4.11594C4.84806 4.43257 4.42859 4.85232 4.1152 5.3752C3.8018 5.89809 3.6451 6.47614 3.6451 7.10938C3.6451 7.74261 3.8018 8.32066 4.1152 8.84355C4.42859 9.36643 4.84806 9.78617 5.37361 10.1028C5.89917 10.4194 6.48017 10.5777 7.1166 10.5777ZM2.05398 12.1176C2.20826 12.2711 2.3939 12.3502 2.61088 12.355C2.82784 12.3599 3.01347 12.2855 3.16777 12.132L4.09351 11.2109C4.24779 11.0574 4.32493 10.8751 4.32493 10.664C4.32493 10.453 4.24779 10.2659 4.09351 10.1028C3.94885 9.95887 3.76563 9.88692 3.54384 9.88692C3.32204 9.88692 3.13882 9.95887 2.99418 10.1028L2.05398 11.0382C1.90934 11.1822 1.83702 11.362 1.83702 11.5779C1.83702 11.7938 1.90934 11.9737 2.05398 12.1176ZM12.1648 12.132C12.3191 11.9785 12.3938 11.7938 12.389 11.5779C12.3842 11.362 12.3094 11.1822 12.1648 11.0382L11.2101 10.1028C11.0655 9.95887 10.8847 9.88692 10.6677 9.88692C10.4507 9.88692 10.2699 9.95887 10.1253 10.1028C9.97097 10.2563 9.89382 10.441 9.89382 10.6569C9.89382 10.8727 9.97097 11.0574 10.1253 11.2109L11.0655 12.132C11.2101 12.2855 11.3885 12.3623 11.6007 12.3623C11.8128 12.3623 12.0008 12.2855 12.1648 12.132ZM12.1648 2.08677C12.0008 1.93325 11.8104 1.85649 11.5934 1.85649C11.3765 1.85649 11.2005 1.93325 11.0655 2.08677L10.1253 3.0222C9.97097 3.18531 9.89623 3.3724 9.90105 3.58347C9.90588 3.79454 9.98063 3.97203 10.1253 4.11594C10.2699 4.26946 10.4507 4.34622 10.6677 4.34622C10.8847 4.34622 11.0703 4.26946 11.2246 4.11594L12.1648 3.1805C12.3094 3.03659 12.3818 2.85671 12.3818 2.64084C12.3818 2.42496 12.3094 2.24027 12.1648 2.08677ZM2.06844 2.08677C1.9238 2.24027 1.84907 2.42496 1.84425 2.64084C1.83943 2.85671 1.90934 3.03659 2.05398 3.1805L2.99418 4.11594C3.14848 4.26946 3.3317 4.34622 3.54384 4.34622C3.75599 4.34622 3.93921 4.26946 4.09351 4.11594C4.24779 3.96244 4.32493 3.78016 4.32493 3.56909C4.32493 3.35802 4.24779 3.17572 4.09351 3.0222L3.16777 2.08677C3.02311 1.94286 2.8423 1.86849 2.62533 1.86368C2.40837 1.85889 2.22274 1.93325 2.06844 2.08677ZM7.1166 14.2188C7.31911 14.2188 7.49992 14.1396 7.65904 13.9813C7.81816 13.823 7.89772 13.6431 7.89772 13.4416V12.132C7.89772 11.9305 7.81816 11.7506 7.65904 11.5923C7.49992 11.434 7.31911 11.3549 7.1166 11.3549C6.90446 11.3549 6.72125 11.434 6.56697 11.5923C6.41267 11.7506 6.33552 11.9305 6.33552 12.132V13.4416C6.33552 13.6431 6.41267 13.823 6.56697 13.9813C6.72125 14.1396 6.90446 14.2188 7.1166 14.2188ZM7.1166 0C6.90446 0 6.72125 0.079156 6.56697 0.237469C6.41267 0.395762 6.33552 0.57565 6.33552 0.777132V2.08677C6.33552 2.28825 6.41267 2.46814 6.56697 2.62643C6.72125 2.78474 6.90446 2.8639 7.1166 2.8639C7.31911 2.8639 7.49992 2.78474 7.65904 2.62643C7.81816 2.46814 7.89772 2.28825 7.89772 2.08677V0.777132C7.89772 0.57565 7.81816 0.395762 7.65904 0.237469C7.49992 0.079156 7.31911 0 7.1166 0ZM0 7.10938C0 7.32045 0.0747304 7.50274 0.224192 7.65626C0.373672 7.80976 0.554485 7.88651 0.76663 7.88651H2.06844C2.28058 7.88651 2.46381 7.80976 2.61811 7.65626C2.77239 7.50274 2.84953 7.32045 2.84953 7.10938C2.84953 6.8983 2.77239 6.71601 2.61811 6.56249C2.46381 6.40899 2.28058 6.33224 2.06844 6.33224H0.76663C0.554485 6.33224 0.373672 6.40899 0.224192 6.56249C0.0747304 6.71601 0 6.8983 0 7.10938ZM14.2187 7.10938C14.2187 6.8983 14.144 6.71601 13.9946 6.56249C13.8451 6.40899 13.6643 6.33224 13.4521 6.33224H12.1503C11.9382 6.33224 11.755 6.40899 11.6007 6.56249C11.4464 6.71601 11.3692 6.8983 11.3692 7.10938C11.3692 7.32045 11.4464 7.50274 11.6007 7.65626C11.755 7.80976 11.9382 7.88651 12.1503 7.88651H13.4521C13.6643 7.88651 13.8451 7.80976 13.9946 7.65626C14.144 7.50274 14.2187 7.32045 14.2187 7.10938Z" fill="#FAB25F"/>
</svg>
