<svg width="282" height="289" viewBox="0 0 282 289" fill="none" xmlns="http://www.w3.org/2000/svg">
<rect width="282" height="289" rx="16" fill="#61C2A1"/>
<path d="M252.928 82.5546L247.538 85.9896V202.247L252.928 205.564V82.5546Z" fill="#9BAA6C"/>
<path d="M140.993 18L140.697 24.5739L247.538 85.9897L252.928 82.5546L140.993 18Z" fill="#EBF2D2"/>
<path d="M140.757 139.765V24.5739L247.538 85.9304V202.247L140.757 139.765Z" fill="#CEDC9F"/>
<path d="M140.757 139.765L34.7451 202.07L140.994 263.722L247.538 202.247L140.757 139.765Z" fill="#FDF9D9"/>
<path d="M252.927 205.564L247.538 202.247L140.993 263.722V270L252.927 205.564Z" fill="#9BAA6C"/>
<path d="M29 205.505L34.6855 202.01L140.993 263.722V270L29 205.505Z" fill="#EBF2D2"/>
<path d="M34.7448 85.6936L29.1184 82.5547L29 205.505L34.804 201.951L34.7448 85.6936Z" fill="#EBF2D2"/>
<path d="M140.757 24.4554L34.6855 85.5751V202.07L140.757 139.765V24.4554Z" fill="#BECD8D"/>
<path d="M66.4896 106.008L49.4922 116.016V153.269L66.4896 143.497V106.008Z" fill="white"/>
<path d="M106.229 127.21V120.577L119.14 113.351L124.589 116.49L106.229 127.21Z" fill="#CABDB1"/>
<path d="M87.751 137.989V131.237L103.327 122.531V127.032L104.926 127.98L87.751 137.989Z" fill="#CABDB1"/>
<path d="M69.2734 148.827V142.016L84.7902 133.073V137.574L86.3893 138.759L69.2734 148.827Z" fill="#CABDB1"/>
<path d="M84.7902 95.4656L69.2734 104.468V142.016L84.7902 133.073V95.4656Z" fill="white"/>
<path d="M103.268 84.8644L87.7515 93.8073V131.296L103.327 122.531L103.268 84.8644Z" fill="white"/>
<path d="M119.14 75.803L106.229 83.2061V120.577L119.081 113.351L119.14 75.803Z" fill="white"/>
<path d="M49.5518 160.257V153.209L66.4899 143.497V148.175L68.089 149.478L49.5518 160.257Z" fill="#CABDB1"/>
<path d="M124.707 72.4272L119.14 75.6846L119.081 113.351L124.707 116.549V72.4272Z" fill="#DCCEC1"/>
<path d="M104.867 83.8575L103.268 84.7459L103.327 127.032L104.926 128.039L104.867 83.8575Z" fill="#DCCEC1"/>
<path d="M86.3299 94.518L84.79 95.4063V137.574L86.3891 138.759L86.3299 94.518Z" fill="#DCCEC1"/>
<path d="M66.4893 148.175V106.007L68.0883 105.06V149.478L66.4893 148.175Z" fill="#DCCEC1"/>
<path d="M106.229 83.0876L104.926 83.8576V128.039L106.229 127.269V83.0876Z" fill="#C5B7AB"/>
<path d="M87.7515 93.6888L86.3301 94.518L86.3893 138.818L87.7515 138.048V93.6888Z" fill="#C5B7AB"/>
<path d="M106.288 83.0876V81.0148L124.707 70.2952V72.5457L106.288 83.0876Z" fill="#C5B7AB"/>
<path d="M119.081 55.3114L106.288 62.7145V79.1788L119.081 71.7166V55.3114Z" fill="white"/>
<path d="M87.8105 93.6888V91.5567L104.867 81.7255L104.926 63.4844L106.289 62.6552V83.0876L87.8105 93.6888Z" fill="#C5B7AB"/>
<path d="M104.926 63.4844L103.446 64.3727L103.387 81.0148L87.8105 89.8985V91.616L104.867 81.7255L104.926 63.4844Z" fill="#DCCEC1"/>
<path d="M103.505 64.3135L87.8105 73.3156V89.8984L103.387 81.0148L103.505 64.3135Z" fill="white"/>
<path d="M69.4512 104.349V102.395L86.4486 92.3267L86.3894 74.1448L87.8107 73.2564V93.6888L69.4512 104.349Z" fill="#C5B7AB"/>
<path d="M69.3916 102.454V100.44L84.9084 91.7344V74.9739L86.389 74.1447L86.4482 92.3266L69.3916 102.454Z" fill="#DCCEC1"/>
<path d="M84.9673 74.9147L69.332 83.8576V100.5L84.9081 91.7344L84.9673 74.9147Z" fill="white"/>
<path d="M68.089 84.6275L66.5492 85.5158L66.4899 102.099L49.5518 111.989V113.707L67.9706 103.046L68.089 84.6275Z" fill="#DCCEC1"/>
<path d="M66.4899 85.5751L49.5518 95.2879V111.989L66.4899 102.099V85.5751Z" fill="white"/>
<path d="M47.3604 94.1626V163.455L49.5517 160.198V95.3471L47.3604 94.1626Z" fill="#FCE7D4"/>
<path d="M49.4329 160.316L124.707 116.49L126.839 117.852L47.3008 163.514L49.4329 160.316Z" fill="#FCE7D4"/>
<path d="M126.839 117.852V48.4413L124.707 52.1133V116.49L126.839 117.852Z" fill="#FCE7D4"/>
<path d="M49.4924 95.2879L47.3604 94.1626L126.84 48.4413L124.648 52.1133L49.4924 95.2879Z" fill="#FCE7D4"/>
<path d="M49.6104 115.898V113.647L67.9699 103.046L68.0884 84.6275L69.3321 83.8575V104.349L49.6104 115.898Z" fill="#C5B7AB"/>
<path d="M106.288 81.0148V79.1788L119.081 71.7165V55.3706L124.707 52.054V70.3544L106.288 81.0148Z" fill="#DCCEC1"/>
<path d="M69.2734 148.791V104.349L68.0889 105.06V149.478L69.2734 148.791Z" fill="#C5B7AB"/>
<path d="M140.993 18L140.697 24.5739L34.6853 85.6343L29.1182 82.5546L140.993 18Z" fill="#EBF2D2"/>
<path d="M59.8448 182.781L52.6982 185.976L60.5175 189.423L70.1023 185.808L59.8448 182.781Z" fill="#2D1108"/>
<path d="M70.1018 185.808L61.1055 190.432V202.791L70.1018 198.167V185.808Z" fill="#DDB1C1"/>
<path d="M61.1056 202.791V190.432L51.2686 185.976V197.074L61.1056 202.791Z" fill="#ECD4DD"/>
<path d="M59.8445 182.108L51.2686 185.976H52.6979L59.8445 182.781V182.108Z" fill="#EABCCD"/>
<path d="M61.1055 190.432L51.3525 185.976H52.6978L60.517 189.423L61.1055 190.432Z" fill="#EABCCD"/>
<path d="M70.1014 185.976L61.1051 190.6L60.5166 189.591L68.9244 185.976H70.1014Z" fill="#EABCCD"/>
<path d="M61.0211 190.348L60.5166 189.423L70.1014 185.808L61.0211 190.348Z" fill="#EABCCD"/>
<path d="M70.1019 185.808L68.9248 185.976L69.6492 186.312L70.1019 185.808Z" fill="#EABCCD"/>
<path d="M59.8447 182.781L69.0092 185.976L70.1022 185.808L59.8447 182.192V182.781Z" fill="#EABCCD"/>
<path d="M60.8632 186.493C59.636 186.483 59.1494 186.283 58.6719 185.546V177.669C58.8493 177.551 58.6236 177.893 60.8632 177.669C61.3057 177.753 61.61 177.757 62.2843 177.669V185.842C61.9805 186.218 61.6089 186.332 60.8632 186.493Z" fill="#533030"/>
<ellipse cx="60.8032" cy="176.425" rx="8.11375" ry="5.03408" fill="#43C648"/>
<ellipse cx="60.8041" cy="168.667" rx="5.62632" ry="4.14571" fill="#43C648"/>
<ellipse cx="60.8628" cy="162.863" rx="3.43502" ry="2.48743" fill="#43C648"/>
<path d="M211.352 108.021L209.456 109.324L209.338 141.838L211.352 140.831V108.021Z" fill="#515151"/>
<path d="M167.111 82.5546L165.334 83.8576L209.397 109.383L211.351 108.021L167.111 82.5546Z" fill="#959494"/>
<path d="M207.088 138.285L209.338 141.838L209.457 109.324L207.206 110.153L207.088 138.285Z" fill="#7E7C7C"/>
<path d="M165.275 116.49L167.407 115.187L207.147 138.285L209.398 141.838L165.275 116.49Z" fill="#7E7C7C"/>
<path d="M165.275 116.49V83.8575L167.407 87.411V115.246L165.275 116.49Z" fill="#7E7C7C"/>
<path d="M167.348 87.4703L165.216 83.7983L209.456 109.324L207.265 110.212L167.348 87.4703Z" fill="#7E7C7C"/>
<path d="M167.348 115.246V87.411L207.206 110.212V138.403L167.348 115.246Z" fill="#2D2C2C"/>
<path d="M71.9091 191.617C71.1389 189.708 70.4768 188.818 68.207 188.076L71.9091 185.876V191.617Z" fill="#3C3C3C"/>
<path d="M85.4296 178.096L82.5859 179.545L87.5757 182.389L89.1316 181.369C87.9965 179.763 87.1567 179.077 85.4296 178.096Z" fill="#3C3C3C"/>
<path d="M89.1321 181.369L87.5225 182.388L89.9369 183.676L89.1321 181.369Z" fill="#595C5B"/>
<path d="M78.1862 177.077C76.4543 177.413 75.5811 177.858 74.2695 179.277L122.718 205.996C124.796 207.717 125.198 208.883 125.347 211.039L129.049 209.108C128.518 206.979 127.906 205.945 126.367 204.333L78.1862 177.077Z" fill="#717171"/>
<path d="M132.591 217.048L129.265 218.873L129.157 214.902L132.591 217.048Z" fill="#707271"/>
<path d="M129.264 218.873L125.562 220.965L125.348 210.986L129.05 209.054L129.264 218.873Z" fill="#3C3C3C"/>
<path d="M145.682 212.649L128.62 222.736V244.948L145.682 234.969V212.649Z" fill="#3C3C3C"/>
<path d="M72.4453 212.863V211.683L73.572 212.327L72.4453 212.863Z" fill="#242424"/>
<path d="M72.4456 212.863V211.683L124.275 241.246V242.587L128.674 244.948V222.682L125.562 220.965L125.348 210.986C125.196 208.728 124.556 207.658 122.719 205.996L74.2698 179.277C72.8979 179.56 72.2123 179.818 71.9091 181.369V191.617L71.6945 191.188C70.9309 189.378 70.1088 188.755 68.207 188.076V210.449L72.4456 212.863Z" fill="#595C5B"/>
<path d="M128.728 222.736L125.562 220.965L143.053 211.147L145.682 212.649L128.728 222.736Z" fill="#595C5B"/>
<path d="M145.774 236.355L138.878 239.438L146.423 242.764L155.672 239.276L145.774 236.355Z" fill="#2D1108"/>
<path d="M155.672 239.276L146.991 243.738V255.664L155.672 251.202V239.276Z" fill="#84CDC8"/>
<path d="M146.991 255.664V243.738L137.499 239.438V250.147L146.991 255.664Z" fill="#BCF9F5"/>
<path d="M145.774 235.706L137.499 239.438H138.878L145.774 236.355V235.706Z" fill="#96DCD7"/>
<path d="M146.991 243.738L137.58 239.438H138.878L146.423 242.764L146.991 243.738Z" fill="#96DCD7"/>
<path d="M155.672 239.438L146.991 243.9L146.423 242.927L154.536 239.438H155.672Z" fill="#96DCD7"/>
<path d="M146.91 243.657L146.423 242.764L155.672 239.276L146.91 243.657Z" fill="#96DCD7"/>
<path d="M155.672 239.276L154.536 239.438L155.235 239.763L155.672 239.276Z" fill="#96DCD7"/>
<path d="M145.774 236.355L154.618 239.438L155.672 239.276L145.774 235.787V236.355Z" fill="#96DCD7"/>
<path d="M146.586 239.195L143.016 237.897L142.691 237.734L145.774 236.355L149.912 237.978L146.586 239.195Z" fill="#46DA4C"/>
<path d="M146.585 235.138V239.195L142.854 237.815L142.935 234.002L146.585 235.138Z" fill="#46DA4C"/>
<path d="M149.993 234.083L146.586 235.138V239.195L149.912 237.978L149.993 234.083Z" fill="#43C648"/>
<path d="M146.18 233.11L142.935 234.002L146.585 235.138L149.993 234.083L146.18 233.11Z" fill="#30CE36"/>
<path d="M146.748 230.595V234.651L143.016 233.272L143.097 229.459L146.748 230.595Z" fill="#46DA4C"/>
<path d="M150.156 229.54L146.748 230.595V234.651L150.074 233.434L150.156 229.54Z" fill="#43C648"/>
<path d="M146.342 228.567L143.097 229.459L146.748 230.595L150.155 229.54L146.342 228.567Z" fill="#30CE36"/>
<path d="M146.91 226.214V230.27L143.178 228.891L143.259 225.078L146.91 226.214Z" fill="#46DA4C"/>
<path d="M150.318 225.159L146.91 226.214V230.27L150.236 229.053L150.318 225.159Z" fill="#43C648"/>
<path d="M146.504 224.185L143.259 225.078L146.91 226.214L150.317 225.159L146.504 224.185Z" fill="#30CE36"/>
<path d="M146.586 223.699L143.341 224.591L146.992 225.727L150.399 224.672L146.586 223.699Z" fill="#30CE36"/>
<path d="M146.911 221.021L150.399 224.672L146.911 225.646L143.341 224.591L146.911 221.021Z" fill="#46DA4C"/>
<path d="M155.563 216.876L99.1221 184.243L136.078 162.863L192.282 195.496L155.563 216.876Z" fill="#EFEFEF"/>
<path d="M183.398 200.648L126.721 168.134L127.076 167.897L183.754 200.471L183.398 200.648Z" fill="#C4C4C4"/>
<path d="M183.754 200.471L127.076 167.956L127.432 167.719L184.109 200.293L183.754 200.471Z" fill="#939393"/>
<path d="M184.109 200.234L127.432 167.719L127.787 167.483L184.465 200.056L184.109 200.234Z" fill="#DDDDDD"/>
<path d="M183.398 200.648L126.721 168.134L127.076 167.897L183.754 200.471L183.398 200.648Z" fill="#C4C4C4"/>
<path d="M188.373 197.865L131.695 165.35L132.051 165.114L188.728 197.687L188.373 197.865Z" fill="#939393"/>
<path d="M188.729 197.628L132.051 165.114L132.406 164.877L189.084 197.45L188.729 197.628Z" fill="#DDDDDD"/>
<path d="M188.018 198.042L131.34 165.528L131.695 165.291L188.373 197.865L188.018 198.042Z" fill="#C4C4C4"/>
<path d="M186.241 199.168L129.563 166.653L129.919 166.417L186.597 198.99L186.241 199.168Z" fill="#939393"/>
<path d="M186.597 198.931L129.919 166.416L130.274 166.18L186.952 198.753L186.597 198.931Z" fill="#DDDDDD"/>
<path d="M185.886 199.345L129.208 166.831L129.563 166.594L186.241 199.168L185.886 199.345Z" fill="#C4C4C4"/>
<path d="M99.1221 185.013V184.243L155.563 216.876L192.282 195.496L192.341 196.206L155.504 217.468L99.1221 185.013Z" fill="#ADADAD"/>
<path d="M132.565 91.3423C138.236 89.4445 141.322 89.7108 146.744 91.3423L139.749 94.4618L132.565 91.3423Z" fill="#444444"/>
<path d="M149.108 103.912C142.152 108.932 137.999 109.355 129.919 103.912L132.471 91.2457C138.335 94.2358 141.432 94.166 146.65 91.2457L149.108 103.912Z" fill="#444444"/>
<ellipse cx="139.466" cy="145.125" rx="5.19891" ry="3.11934" fill="#737171"/>
<ellipse cx="139.466" cy="143.991" rx="5.19891" ry="3.11935" fill="#A9A9A9"/>
<path d="M140.79 144.086C139.779 144.542 139.265 144.532 138.332 144.086V107.693C139.348 107.952 139.881 107.925 140.79 107.693V144.086Z" fill="#868484"/>
<ellipse cx="139.749" cy="91.4348" rx="5.86059" ry="0.850731" fill="#5E5E5E"/>
<path d="M141.704 155.342V152.262L143.007 153.032V156.348L141.704 155.342Z" fill="#B6B1B1"/>
<path d="M176.173 175.419V172.813L177.653 173.701L177.594 176.248L176.173 175.419Z" fill="#B6B1B1"/>
<path d="M209.812 195.318V192.831L211.234 193.719V196.266L209.812 195.318Z" fill="#B6B1B1"/>
<path d="M150.055 130.645L138.98 137.397L214.847 181.104L226.159 174.649L150.055 130.645Z" fill="#FFFAF5"/>
<path d="M138.921 150.604V137.456L157.754 148.235V161.797L138.921 150.604Z" fill="#E2E2E2"/>
<path d="M157.754 161.797V148.294L157.932 148.412V161.915L157.754 161.797Z" fill="#818181"/>
<path d="M176.943 173.282V159.31L177.121 159.432V173.405L176.943 173.282Z" fill="#818181"/>
<path d="M195.895 184.532V170.207L196.072 170.333V184.658L195.895 184.532Z" fill="#818181"/>
<path d="M157.991 161.915V148.412L176.884 159.31V173.227L157.991 161.915Z" fill="#E2E2E2"/>
<path d="M177.18 173.405V159.428L195.895 170.266V184.539L177.18 173.405Z" fill="#E2E2E2"/>
<path d="M196.132 184.658V170.385L214.847 181.104V195.851L196.132 184.658Z" fill="#E2E2E2"/>
<path d="M214.965 195.733V181.163L226.099 174.767L226.158 189.277L214.965 195.733Z" fill="#D2D1D1"/>
<path d="M217.923 201.482V189.959H243.946V201.482C233.697 204.076 227.981 204.244 217.923 201.482Z" fill="#EBED82"/>
<ellipse cx="230.877" cy="189.959" rx="13.0694" ry="1.27225" fill="#FBFDB0"/>
<ellipse cx="230.993" cy="189.959" rx="10.6405" ry="1.04092" fill="#623737"/>
<path d="M236.602 161.623L231.166 190.306H232.38L236.602 161.623Z" fill="#5F8E5E"/>
<path d="M236.544 161.218L231.166 190.306L236.544 162.201V161.218Z" fill="#46DA4C"/>
<path d="M222.55 159.772L229.258 190.306H227.759L222.55 159.772Z" fill="#5F8E5E"/>
<path d="M222.665 159.31L229.258 190.306L222.665 160.357V159.31Z" fill="#46DA4C"/>
<path d="M233.19 160.582L231.108 190.19H230.299L233.19 160.582Z" fill="#5F8E5E"/>
<path d="M232.843 164.745L230.53 190.132V190.19H230.299L232.843 164.745Z" fill="#46DA4C"/>
<path d="M237.469 161.623L232.033 190.306H233.248L237.469 161.623Z" fill="#5F8E5E"/>
<path d="M237.411 161.218L232.033 190.306L237.411 162.201V161.218Z" fill="#46DA4C"/>
<path d="M234.057 160.582L231.976 190.19H231.166L234.057 160.582Z" fill="#5F8E5E"/>
<path d="M233.711 164.745L231.397 190.132V190.19H231.166L233.711 164.745Z" fill="#46DA4C"/>
<path d="M224.632 160.697L230.53 190.306H229.213L224.632 160.697Z" fill="#5F8E5E"/>
<path d="M224.747 160.35L230.53 190.306L224.747 161.363V160.35Z" fill="#46DA4C"/>
<path d="M228.332 159.772L230.581 190.306H231.455L228.332 159.772Z" fill="#5F8E5E"/>
<path d="M228.679 164.052L231.203 190.246V190.306H231.455L228.679 164.052Z" fill="#46DA4C"/>
<path d="M224.169 159.772L230.877 190.306H229.378L224.169 159.772Z" fill="#5F8E5E"/>
<path d="M224.284 159.31L230.877 190.306L224.284 160.357V159.31Z" fill="#46DA4C"/>
<path d="M226.251 160.697L232.149 190.306H230.832L226.251 160.697Z" fill="#5F8E5E"/>
<path d="M226.366 160.35L232.149 190.306L226.366 161.363V160.35Z" fill="#46DA4C"/>
<path d="M229.951 159.772L232.2 190.306H233.074L229.951 159.772Z" fill="#5F8E5E"/>
<path d="M230.298 164.052L232.822 190.246V190.306H233.074L230.298 164.052Z" fill="#46DA4C"/>
<path d="M151.726 198.275V198.073L150.983 197.87L151.726 198.275Z" fill="#3A3A3A"/>
<path d="M116.416 181.735L151.726 201.314V198.275L116.416 178.224V181.735Z" fill="#747474"/>
<path d="M176.232 187.068V183.828L151.725 198.073V201.381L176.232 187.068Z" fill="#242424"/>
<path d="M118.981 189.161L121.411 190.849V184.503L118.981 183.017V189.161Z" fill="#E0E0E0"/>
<path d="M123.842 189.499V185.853L121.411 184.435V190.849L123.842 189.499Z" fill="#CBCBCB"/>
<path d="M169.211 184.908L171.034 183.828L140.653 166.342V168.435L169.211 184.908Z" fill="#5C5C5C"/>
<path d="M140.653 168.435V166.342L121.21 177.684L123.505 179.102L123.572 178.427L140.653 168.435Z" fill="#444444"/>
<path d="M176.232 183.828H171.034L151.523 195.372L150.982 197.87L151.725 198.073L176.232 183.828Z" fill="#3A3A3A"/>
<path d="M141.733 163.574L176.232 183.828H171.034L140.653 166.342L121.142 177.684L151.523 195.372L150.982 197.87L116.483 178.157L141.733 163.574Z" fill="#3A3A3A"/>
<path d="M168.603 195.507L171.304 197.195V189.971L168.603 191.524V195.507Z" fill="#E0E0E0"/>
<path d="M171.303 197.195V189.971L173.464 188.756V195.777L171.303 197.195Z" fill="#CBCBCB"/>
<path d="M151.793 208.267V201.381L149.227 199.963V206.647L151.793 208.267Z" fill="#E0E0E0"/>
<path d="M154.224 206.85L151.793 208.267V201.314L154.291 199.896L154.224 206.85Z" fill="#CBCBCB"/>
</svg>
