<svg width="171" height="151" viewBox="0 0 171 151" fill="none" xmlns="http://www.w3.org/2000/svg">
<path d="M32.2945 2.82164C29.7454 6.02588 27.1146 10.6344 25.5483 13.7996C12.3741 40.4225 19.5738 65.8756 43.8479 77.8875C55.7739 83.789 65.4729 81.9776 70.9226 79.8147C71.7886 85.3218 71.2489 90.4835 70.2241 97.1565C69.8991 99.1409 70.7823 100.454 72.1543 101.132C74.8632 102.473 78.2455 101.213 79.8466 97.9778C82.2657 93.0894 79.4057 80.9916 77.4173 75.7172C68.9324 53.4808 40.8522 50.3993 42.7034 31.7016C42.8382 30.3673 44.4516 30.0274 44.9849 31.6047C50.9794 50.2008 72.102 47.6065 80.3903 69.0013C81.118 70.8938 83.0847 71.0789 84.0445 69.7589C84.7077 68.8612 85.6138 67.2956 86.4143 65.6779C94.9418 48.4451 87.2619 33.8746 69.9886 25.327C64.2894 22.5069 56.8917 20.6412 51.6851 18.0647C46.0915 15.2967 39.968 11.7412 37.5296 3.83608C36.7467 1.34718 34.1804 0.515084 32.2945 2.82164Z" fill="#019973"/>
<path d="M169.822 44.5655C170.686 48.5679 171 53.8652 171 57.3967C171 87.1009 153.258 106.721 126.175 106.721C112.869 106.721 104.979 100.795 101.054 96.4398C97.8352 100.992 96.0297 105.857 93.9886 112.292C93.3998 114.215 92.026 115 90.4952 115C87.4728 115 85 112.371 85 108.761C85 103.307 92.9288 93.7323 97.0502 89.8869C114.517 73.7203 141.051 83.4124 147.685 65.8332C148.156 64.5775 146.86 63.5573 145.683 64.7345C132.063 78.7429 114.282 67.0496 97.3642 82.5491C95.8727 83.9225 94.0278 83.2162 93.7531 81.6074C93.5568 80.5087 93.4391 78.7037 93.4391 76.8987C93.4391 57.6714 106.785 48.0186 126.057 48.0186C132.416 48.0186 139.874 49.6274 145.683 49.6274C151.924 49.6274 158.989 49.1565 164.681 43.1529C166.486 41.2694 169.155 41.6618 169.822 44.5655Z" fill="#019973"/>
<path d="M147.75 150.25H18.75C26.5197 140.119 32.1447 136.841 45.75 137.75C49.2023 121.044 53.7221 116.991 62.75 111.75C64.9399 104.734 69.25 94.4999 75.25 92.4999C81.25 90.5 82.7705 106.594 83.5 105.5C84.2295 104.405 89.2594 108.134 92 111.75C104.039 113.822 109.353 119.1 117 133.75C133.253 133.884 139.231 138.619 147.75 150.25Z" fill="#9D8351"/>
</svg>
