<svg width="61" height="61" viewBox="0 0 61 61" fill="none" xmlns="http://www.w3.org/2000/svg">
<circle cx="26" cy="26" r="26" fill="#019973"/>
<path d="M11.0427 14.1155C10.846 15.0277 10.7744 16.235 10.7744 17.0399C10.7744 23.81 14.8168 28.2816 20.9876 28.2816C24.0194 28.2816 25.817 26.9312 26.7113 25.9385C27.4446 26.9759 27.856 28.0848 28.3211 29.5515C28.4552 29.9897 28.7682 30.1686 29.117 30.1686C29.8056 30.1686 30.3691 29.5694 30.3691 28.7466C30.3691 27.5035 28.5625 25.3214 27.6235 24.4449C23.6437 20.7603 17.5981 22.9693 16.0867 18.9627C15.9794 18.6765 16.2745 18.444 16.5428 18.7123C19.6461 21.905 23.6974 19.24 27.5519 22.7725C27.8918 23.0856 28.3121 22.9246 28.3747 22.5579C28.4194 22.3075 28.4463 21.8961 28.4463 21.4847C28.4463 17.1025 25.4056 14.9025 21.0144 14.9025C19.5656 14.9025 17.8664 15.2692 16.5428 15.2692C15.1208 15.2692 13.511 15.1618 12.2143 13.7935C11.8029 13.3642 11.1947 13.4537 11.0427 14.1155Z" fill="#FFFAFA"/>
<path d="M34.3101 38.2684C34.4648 38.1138 34.5395 37.9341 34.5344 37.7294L34.5245 34.5318L37.7221 34.5417C37.9367 34.5369 38.1164 34.4621 38.2611 34.3174C38.4057 34.1728 38.478 33.9956 38.4778 33.7859C38.4777 33.5763 38.4027 33.3965 38.2528 33.2466C38.1079 33.1017 37.9306 33.0292 37.7209 33.029L34.5309 33.0267L34.521 29.8141C34.5208 29.6044 34.4508 29.4296 34.3109 29.2898C34.161 29.1399 33.9825 29.0661 33.7753 29.0685C33.5681 29.0708 33.3922 29.1443 33.2475 29.289C33.1128 29.4237 33.0431 29.5983 33.0382 29.813L33.0332 33.0405L29.8206 33.0456C29.6209 33.0355 29.4462 33.1052 29.2966 33.2549C29.1519 33.3996 29.0784 33.5755 29.0761 33.7827C29.0737 33.9898 29.1475 34.1684 29.2974 34.3183C29.4423 34.4631 29.617 34.5332 29.8217 34.5283L33.0193 34.5382L33.0292 37.7358C33.0243 37.9405 33.0944 38.1152 33.2393 38.2601C33.3891 38.41 33.5689 38.485 33.7786 38.4852C33.9883 38.4853 34.1654 38.4131 34.3101 38.2684Z" fill="#FFFAFA"/>
</svg>
