<svg width="282" height="289" viewBox="0 0 282 289" fill="none" xmlns="http://www.w3.org/2000/svg">
<rect width="282" height="289" rx="16" fill="#61C2A1"/>
<path d="M252.928 82.5546L247.538 85.9896V202.247L252.928 205.564V82.5546Z" fill="#9BAA6C"/>
<path d="M140.993 18L140.697 24.5739L247.538 85.9897L252.928 82.5546L140.993 18Z" fill="#EBF2D2"/>
<path d="M140.757 139.765V24.5739L247.539 85.9304V202.247L140.757 139.765Z" fill="#CEDC9F"/>
<path d="M140.757 139.765L34.7451 202.07L140.994 263.722L247.539 202.247L140.757 139.765Z" fill="#FDF9D9"/>
<path d="M252.927 205.564L247.538 202.247L140.993 263.722V270L252.927 205.564Z" fill="#9BAA6C"/>
<path d="M29 205.505L34.6855 202.01L140.993 263.722V270L29 205.505Z" fill="#EBF2D2"/>
<path d="M34.7448 85.6935L29.1184 82.5546L29 205.505L34.804 201.951L34.7448 85.6935Z" fill="#EBF2D2"/>
<path d="M140.757 24.4554L34.6855 85.5751V202.07L140.757 139.765V24.4554Z" fill="#BECD8D"/>
<path d="M66.4886 106.008L49.4912 116.016V153.269L66.4886 143.497V106.008Z" fill="white"/>
<path d="M106.229 127.21V120.577L119.139 113.351L124.588 116.49L106.229 127.21Z" fill="#CABDB1"/>
<path d="M87.75 137.989V131.237L103.326 122.531V127.032L104.925 127.98L87.75 137.989Z" fill="#CABDB1"/>
<path d="M69.2725 148.827V142.016L84.7893 133.073V137.574L86.3883 138.759L69.2725 148.827Z" fill="#CABDB1"/>
<path d="M84.7893 95.4656L69.2725 104.468V142.016L84.7893 133.073V95.4656Z" fill="white"/>
<path d="M103.267 84.8644L87.7505 93.8073V131.296L103.327 122.531L103.267 84.8644Z" fill="white"/>
<path d="M119.139 75.8031L106.229 83.2062V120.577L119.08 113.351L119.139 75.8031Z" fill="white"/>
<path d="M49.5508 160.257V153.209L66.489 143.497V148.175L68.088 149.478L49.5508 160.257Z" fill="#CABDB1"/>
<path d="M124.706 72.4273L119.139 75.6847L119.08 113.351L124.706 116.55V72.4273Z" fill="#DCCEC1"/>
<path d="M104.866 83.8576L103.267 84.746L103.326 127.032L104.925 128.039L104.866 83.8576Z" fill="#DCCEC1"/>
<path d="M86.3289 94.5181L84.7891 95.4064V137.574L86.3881 138.759L86.3289 94.5181Z" fill="#DCCEC1"/>
<path d="M66.4883 148.175V106.008L68.0873 105.06V149.478L66.4883 148.175Z" fill="#DCCEC1"/>
<path d="M106.228 83.0877L104.925 83.8576V128.039L106.228 127.269V83.0877Z" fill="#C5B7AB"/>
<path d="M87.7505 93.6889L86.3291 94.518L86.3883 138.818L87.7505 138.048V93.6889Z" fill="#C5B7AB"/>
<path d="M106.287 83.0877V81.0149L124.706 70.2952V72.5458L106.287 83.0877Z" fill="#C5B7AB"/>
<path d="M119.08 55.3115L106.287 62.7145V79.1789L119.08 71.7166V55.3115Z" fill="white"/>
<path d="M87.8096 93.6889V91.5568L104.866 81.7255L104.925 63.4844L106.288 62.6553V83.0877L87.8096 93.6889Z" fill="#C5B7AB"/>
<path d="M104.925 63.4844L103.445 64.3728L103.386 81.0149L87.8096 89.8985V91.616L104.866 81.7256L104.925 63.4844Z" fill="#DCCEC1"/>
<path d="M103.504 64.3135L87.8096 73.3157V89.8985L103.386 81.0148L103.504 64.3135Z" fill="white"/>
<path d="M69.4502 104.349V102.395L86.4476 92.3267L86.3884 74.1448L87.8098 73.2565V93.6889L69.4502 104.349Z" fill="#C5B7AB"/>
<path d="M69.3906 102.454V100.44L84.9074 91.7345V74.974L86.388 74.1448L86.4473 92.3267L69.3906 102.454Z" fill="#DCCEC1"/>
<path d="M84.9663 74.9147L69.3311 83.8576V100.5L84.9071 91.7345L84.9663 74.9147Z" fill="white"/>
<path d="M68.088 84.6276L66.5482 85.5159L66.489 102.099L49.5508 111.989V113.707L67.9696 103.046L68.088 84.6276Z" fill="#DCCEC1"/>
<path d="M66.489 85.5751L49.5508 95.2879V111.989L66.489 102.099V85.5751Z" fill="white"/>
<path d="M47.3594 94.1627V163.455L49.5507 160.198V95.3471L47.3594 94.1627Z" fill="#FCE7D4"/>
<path d="M49.4319 160.316L124.706 116.49L126.838 117.852L47.2998 163.514L49.4319 160.316Z" fill="#FCE7D4"/>
<path d="M126.838 117.852V48.4414L124.706 52.1133V116.49L126.838 117.852Z" fill="#FCE7D4"/>
<path d="M49.4915 95.2879L47.3594 94.1627L126.839 48.4414L124.647 52.1133L49.4915 95.2879Z" fill="#FCE7D4"/>
<path d="M49.6094 115.898V113.647L67.969 103.046L68.0874 84.6275L69.3311 83.8576V104.349L49.6094 115.898Z" fill="#C5B7AB"/>
<path d="M106.287 81.0148V79.1789L119.08 71.7166V55.3706L124.706 52.0541V70.3544L106.287 81.0148Z" fill="#DCCEC1"/>
<path d="M69.2724 148.791V104.349L68.0879 105.06V149.478L69.2724 148.791Z" fill="#C5B7AB"/>
<path d="M140.993 18L140.697 24.5739L34.6853 85.6343L29.1182 82.5546L140.993 18Z" fill="#EBF2D2"/>
<path d="M211.352 108.021L209.456 109.324L209.338 141.838L211.352 140.831V108.021Z" fill="#515151"/>
<path d="M167.111 82.5546L165.334 83.8576L209.397 109.383L211.351 108.021L167.111 82.5546Z" fill="#959494"/>
<path d="M207.088 138.285L209.338 141.838L209.457 109.324L207.206 110.153L207.088 138.285Z" fill="#7E7C7C"/>
<path d="M165.275 116.49L167.407 115.187L207.147 138.285L209.398 141.838L165.275 116.49Z" fill="#7E7C7C"/>
<path d="M165.275 116.49V83.8575L167.407 87.411V115.246L165.275 116.49Z" fill="#7E7C7C"/>
<path d="M167.348 87.4703L165.216 83.7983L209.456 109.324L207.265 110.212L167.348 87.4703Z" fill="#7E7C7C"/>
<path d="M167.348 115.246V87.411L207.206 110.212V138.403L167.348 115.246Z" fill="#2D2C2C"/>
<path d="M71.9081 191.617C71.1379 189.708 70.4758 188.818 68.2061 188.076L71.9081 185.876V191.617Z" fill="#3C3C3C"/>
<path d="M85.4286 178.096L82.585 179.545L87.5747 182.389L89.1306 181.369C87.9955 179.763 87.1557 179.077 85.4286 178.096Z" fill="#3C3C3C"/>
<path d="M89.1311 181.369L87.5215 182.388L89.9359 183.676L89.1311 181.369Z" fill="#595C5B"/>
<path d="M78.1852 177.077C76.4533 177.413 75.5802 177.858 74.2686 179.277L122.717 205.996C124.795 207.717 125.197 208.883 125.346 211.039L129.048 209.108C128.517 206.979 127.905 205.945 126.366 204.333L78.1852 177.077Z" fill="#717171"/>
<path d="M132.59 217.048L129.264 218.873L129.156 214.902L132.59 217.048Z" fill="#707271"/>
<path d="M129.263 218.873L125.561 220.965L125.347 210.986L129.049 209.054L129.263 218.873Z" fill="#3C3C3C"/>
<path d="M145.681 212.649L128.619 222.736V244.948L145.681 234.969V212.649Z" fill="#3C3C3C"/>
<path d="M72.4443 212.863V211.683L73.5711 212.327L72.4443 212.863Z" fill="#242424"/>
<path d="M72.4447 212.863V211.683L124.274 241.246V242.587L128.673 244.948V222.682L125.561 220.965L125.347 210.986C125.196 208.728 124.555 207.658 122.718 205.996L74.2689 179.277C72.897 179.56 72.2113 179.818 71.9081 181.369V191.617L71.6935 191.188C70.9299 189.378 70.1078 188.755 68.2061 188.076V210.449L72.4447 212.863Z" fill="#595C5B"/>
<path d="M128.727 222.736L125.562 220.965L143.052 211.147L145.681 212.649L128.727 222.736Z" fill="#595C5B"/>
<path d="M155.562 216.876L99.1211 184.243L136.077 162.863L192.281 195.496L155.562 216.876Z" fill="#EFEFEF"/>
<path d="M183.398 200.648L126.72 168.134L127.075 167.897L183.753 200.47L183.398 200.648Z" fill="#C4C4C4"/>
<path d="M183.753 200.47L127.075 167.956L127.431 167.719L184.108 200.293L183.753 200.47Z" fill="#939393"/>
<path d="M184.108 200.234L127.431 167.719L127.786 167.482L184.464 200.056L184.108 200.234Z" fill="#DDDDDD"/>
<path d="M183.398 200.648L126.72 168.134L127.075 167.897L183.753 200.47L183.398 200.648Z" fill="#C4C4C4"/>
<path d="M188.372 197.865L131.694 165.35L132.05 165.114L188.727 197.687L188.372 197.865Z" fill="#939393"/>
<path d="M188.728 197.628L132.05 165.113L132.405 164.877L189.083 197.45L188.728 197.628Z" fill="#DDDDDD"/>
<path d="M188.017 198.042L131.339 165.528L131.694 165.291L188.372 197.865L188.017 198.042Z" fill="#C4C4C4"/>
<path d="M186.24 199.168L129.562 166.653L129.918 166.416L186.596 198.99L186.24 199.168Z" fill="#939393"/>
<path d="M186.596 198.931L129.918 166.416L130.273 166.18L186.951 198.753L186.596 198.931Z" fill="#DDDDDD"/>
<path d="M185.885 199.345L129.207 166.831L129.562 166.594L186.24 199.168L185.885 199.345Z" fill="#C4C4C4"/>
<path d="M99.1211 185.013V184.243L155.562 216.876L192.281 195.496L192.34 196.206L155.503 217.468L99.1211 185.013Z" fill="#ADADAD"/>
<path d="M132.564 91.3423C138.235 89.4445 141.321 89.7108 146.743 91.3423L139.748 94.4618L132.564 91.3423Z" fill="#444444"/>
<path d="M149.107 103.912C142.151 108.932 137.998 109.355 129.918 103.912L132.47 91.2457C138.334 94.2358 141.431 94.166 146.649 91.2457L149.107 103.912Z" fill="#444444"/>
<ellipse cx="139.466" cy="145.125" rx="5.19891" ry="3.11934" fill="#737171"/>
<ellipse cx="139.466" cy="143.991" rx="5.19891" ry="3.11935" fill="#A9A9A9"/>
<path d="M140.789 144.086C139.778 144.542 139.264 144.532 138.331 144.086V107.693C139.347 107.952 139.88 107.925 140.789 107.693V144.086Z" fill="#868484"/>
<ellipse cx="139.748" cy="91.4348" rx="5.8606" ry="0.850731" fill="#5E5E5E"/>
<path d="M141.703 155.341V152.262L143.006 153.032V156.348L141.703 155.341Z" fill="#B6B1B1"/>
<path d="M176.172 175.418V172.813L177.652 173.701L177.593 176.248L176.172 175.418Z" fill="#B6B1B1"/>
<path d="M209.812 195.318V192.831L211.233 193.719V196.266L209.812 195.318Z" fill="#B6B1B1"/>
<path d="M150.054 130.645L138.979 137.396L214.846 181.104L226.158 174.649L150.054 130.645Z" fill="#FFFAF5"/>
<path d="M138.92 150.603V137.456L157.753 148.234V161.797L138.92 150.603Z" fill="#E2E2E2"/>
<path d="M157.753 161.797V148.294L157.931 148.412V161.915L157.753 161.797Z" fill="#818181"/>
<path d="M176.942 173.282V159.309L177.12 159.432V173.405L176.942 173.282Z" fill="#818181"/>
<path d="M195.894 184.532V170.207L196.071 170.332V184.658L195.894 184.532Z" fill="#818181"/>
<path d="M157.99 161.915V148.412L176.883 159.309V173.227L157.99 161.915Z" fill="#E2E2E2"/>
<path d="M177.179 173.405V159.428L195.894 170.266V184.539L177.179 173.405Z" fill="#E2E2E2"/>
<path d="M196.131 184.658V170.384L214.846 181.104V195.851L196.131 184.658Z" fill="#E2E2E2"/>
<path d="M214.964 195.732V181.163L226.098 174.767L226.157 189.277L214.964 195.732Z" fill="#D2D1D1"/>
<path d="M151.726 198.275V198.073L150.983 197.87L151.726 198.275Z" fill="#3A3A3A"/>
<path d="M116.416 181.735L151.726 201.314V198.275L116.416 178.224V181.735Z" fill="#747474"/>
<path d="M176.232 187.068V183.828L151.725 198.073V201.381L176.232 187.068Z" fill="#242424"/>
<path d="M118.982 189.161L121.412 190.849V184.503L118.982 183.017V189.161Z" fill="#E0E0E0"/>
<path d="M123.842 189.499V185.853L121.411 184.435V190.849L123.842 189.499Z" fill="#CBCBCB"/>
<path d="M169.211 184.908L171.034 183.828L140.653 166.342V168.435L169.211 184.908Z" fill="#5C5C5C"/>
<path d="M140.653 168.435V166.342L121.21 177.684L123.505 179.102L123.572 178.427L140.653 168.435Z" fill="#444444"/>
<path d="M176.232 183.828H171.034L151.523 195.372L150.982 197.87L151.725 198.073L176.232 183.828Z" fill="#3A3A3A"/>
<path d="M141.733 163.574L176.232 183.828H171.034L140.653 166.342L121.142 177.684L151.523 195.372L150.982 197.87L116.483 178.157L141.733 163.574Z" fill="#3A3A3A"/>
<path d="M168.603 195.507L171.304 197.195V189.971L168.603 191.524V195.507Z" fill="#E0E0E0"/>
<path d="M171.304 197.195V189.971L173.465 188.756V195.777L171.304 197.195Z" fill="#CBCBCB"/>
<path d="M151.793 208.267V201.381L149.227 199.963V206.647L151.793 208.267Z" fill="#E0E0E0"/>
<path d="M154.224 206.85L151.793 208.267V201.314L154.291 199.896L154.224 206.85Z" fill="#CBCBCB"/>
</svg>
