<svg width="35" height="35" viewBox="0 0 35 35" fill="none" xmlns="http://www.w3.org/2000/svg">
<path d="M17.4891 35C19.8875 35 22.1414 34.5446 24.2508 33.6338C26.3601 32.723 28.2203 31.4581 29.8313 29.8389C31.4422 28.2198 32.7064 26.3548 33.6238 24.2441C34.5413 22.1334 35 19.8854 35 17.5C35 15.1146 34.5413 12.8666 33.6238 10.7559C32.7064 8.64521 31.4386 6.78027 29.8204 5.16109C28.2023 3.54194 26.3385 2.27697 24.2291 1.36618C22.1197 0.455392 19.8658 0 17.4675 0C15.0836 0 12.837 0.455392 10.7276 1.36618C8.61818 2.27697 6.76162 3.54194 5.15788 5.16109C3.55417 6.78027 2.2936 8.64521 1.37616 10.7559C0.458719 12.8666 0 15.1146 0 17.5C0 19.8854 0.458719 22.1334 1.37616 24.2441C2.2936 26.3548 3.55778 28.2198 5.16871 29.8389C6.77966 31.4581 8.63984 32.723 10.7492 33.6338C12.8586 34.5446 15.1053 35 17.4891 35Z" fill="#CA9EED"/>
<path d="M9.31933 22.2923C9.14596 21.2081 9.65164 20.5214 10.8364 20.2323L15.2357 19.213C14.8457 19.0685 14.5567 18.736 14.3689 18.2155L11.4215 17.8035C10.8291 17.7167 10.3885 17.4963 10.0995 17.1421C9.81057 16.7879 9.6661 16.3145 9.6661 15.7217V12.3171C9.6661 11.7533 9.95505 11.4714 10.533 11.4714C11.082 11.4714 11.3565 11.7533 11.3565 12.3171V15.3531C11.3565 15.6856 11.4432 15.9133 11.6165 16.0361C11.7899 16.159 12.0211 16.2349 12.31 16.2638L14.3905 16.5674C14.4772 16.2638 14.6434 16.0036 14.889 15.7868C13.2853 15.4976 12.4834 14.5796 12.4834 13.0327C12.4834 11.8907 12.8374 10.857 13.5453 9.93176L13.502 9.88837C12.5195 9.2089 12.3317 8.26199 12.9385 7.04764L13.3503 6.24525C13.5381 5.88383 13.8126 5.70312 14.1738 5.70312C14.405 5.70312 14.5928 5.77541 14.7373 5.91999C14.8818 6.06456 14.954 6.24527 14.954 6.46212C14.954 6.65006 14.9107 6.81633 14.824 6.9609L14.4989 7.56805C14.3689 7.78492 14.2858 7.98732 14.2497 8.17524C14.2136 8.36319 14.2677 8.52221 14.4122 8.65231L14.6723 8.86917C15.0913 8.58005 15.5536 8.3632 16.0593 8.21863C16.565 8.07406 17.049 8.00177 17.5113 8.00177C17.9736 8.00177 18.4576 8.07406 18.9633 8.21863C19.469 8.3632 19.9313 8.58005 20.3503 8.86917L20.5887 8.65231C20.8488 8.42101 20.8271 8.05959 20.5237 7.56805L20.1986 6.9609C20.1119 6.81633 20.0686 6.65006 20.0686 6.46212C20.0686 6.23082 20.1408 6.0465 20.2853 5.90915C20.4298 5.7718 20.6176 5.70312 20.8488 5.70312C21.1666 5.70312 21.4411 5.88383 21.6723 6.24525L22.0624 7.04764C22.7125 8.23309 22.5247 9.18 21.4989 9.88837L21.4556 9.93176C22.178 10.857 22.5392 11.8907 22.5392 13.0327C22.5392 14.5796 21.7301 15.4976 20.1119 15.7868C20.3575 16.0036 20.5237 16.2638 20.6104 16.5674L22.6909 16.2638C22.9798 16.2205 23.211 16.141 23.3844 16.0253C23.5577 15.9097 23.6444 15.6856 23.6444 15.3531V12.3171C23.6444 11.7533 23.9189 11.4714 24.4679 11.4714C25.0459 11.4714 25.3348 11.7533 25.3348 12.3171V15.7217C25.3348 16.3145 25.1939 16.7879 24.9122 17.1421C24.6305 17.4963 24.1862 17.7167 23.5794 17.8035L20.632 18.2155C20.4587 18.736 20.1769 19.0685 19.7868 19.213L24.1862 20.2323C25.3709 20.5503 25.8766 21.237 25.7032 22.2923L24.9231 27.28C24.8219 27.8871 24.533 28.1907 24.0562 28.1907C23.7961 28.1907 23.5794 28.0968 23.406 27.9088C23.2327 27.7209 23.1749 27.4679 23.2327 27.1498L23.9045 22.6393C23.9912 22.1767 23.7528 21.8731 23.1893 21.7285C23.0882 21.6996 22.9798 21.6707 22.8642 21.6418C22.7486 21.6129 22.6403 21.584 22.5392 21.5551C22.6114 21.8008 22.6475 22.1333 22.6475 22.5526C22.6475 23.6079 22.4127 24.5982 21.9432 25.5234C21.4736 26.4487 20.8488 27.2041 20.0686 27.7896C19.2884 28.3751 18.436 28.6678 17.5113 28.6678C16.5866 28.6678 15.7342 28.3751 14.954 27.7896C14.1738 27.2041 13.5489 26.4487 13.0794 25.5234C12.6098 24.5982 12.3751 23.6079 12.3751 22.5526C12.3751 22.1333 12.4112 21.8008 12.4834 21.5551C12.3678 21.584 12.2559 21.6129 12.1475 21.6418C12.0392 21.6707 11.9272 21.6996 11.8116 21.7285C11.2626 21.8731 11.0242 22.1767 11.0964 22.6393L11.7683 27.1498C11.8116 27.4679 11.7538 27.7209 11.5949 27.9088C11.436 28.0968 11.2192 28.1907 10.9447 28.1907C10.4679 28.1907 10.1862 27.8871 10.0995 27.28L9.31933 22.2923Z" fill="#FFFAFA"/>
</svg>
