<svg width="19" height="20" viewBox="0 0 19 20" fill="none" xmlns="http://www.w3.org/2000/svg">
<path d="M3.32533 19.013H15.6747C16.7875 19.013 17.6199 18.7392 18.1719 18.1915C18.724 17.6438 19 16.8222 19 15.7268V3.28621C19 2.19081 18.724 1.36926 18.1719 0.821557C17.6199 0.273851 16.7875 0 15.6747 0H3.32533C2.22123 0 1.39098 0.273851 0.834586 0.821557C0.278195 1.36926 0 2.19081 0 3.28621V15.7268C0 16.8222 0.278195 17.6438 0.834586 18.1915C1.39098 18.7392 2.22123 19.013 3.32533 19.013ZM3.35142 17.1222C2.88195 17.1222 2.51898 16.9983 2.26253 16.7505C2.00607 16.5027 1.87784 16.1311 1.87784 15.6355V3.37749C1.87784 2.89064 2.00607 2.52116 2.26253 2.26905C2.51898 2.01693 2.88195 1.89088 3.35142 1.89088H15.6486C16.1181 1.89088 16.481 2.01693 16.7375 2.26905C16.9939 2.52116 17.1222 2.89064 17.1222 3.37749V15.6355C17.1222 16.1311 16.9939 16.5027 16.7375 16.7505C16.481 16.9983 16.1181 17.1222 15.6486 17.1222H3.35142Z" fill="#373737"/>
<path d="M8.38566 14.3446C8.77688 14.3446 9.08985 14.162 9.32457 13.7969L13.8105 6.70287C13.88 6.58984 13.9452 6.4703 14.0061 6.34425C14.067 6.21819 14.0974 6.08561 14.0974 5.9465C14.0974 5.6857 13.9996 5.47923 13.804 5.32709C13.6084 5.17495 13.3889 5.09888 13.1454 5.09888C12.8238 5.09888 12.5586 5.27275 12.35 5.62049L8.3335 12.1147L6.5339 9.68913C6.39482 9.50656 6.25572 9.38268 6.11661 9.31748C5.97752 9.25228 5.82973 9.21968 5.67325 9.21968C5.42112 9.21968 5.20812 9.31096 5.03426 9.49353C4.86038 9.6761 4.77344 9.89344 4.77344 10.1456C4.77344 10.3977 4.86038 10.6367 5.03426 10.8628L7.38153 13.7969C7.52933 13.9968 7.68364 14.1381 7.84447 14.2207C8.00531 14.3033 8.18571 14.3446 8.38566 14.3446Z" fill="#373737"/>
</svg>
