<svg width="232" height="238" viewBox="0 0 232 238" fill="none" xmlns="http://www.w3.org/2000/svg">
<rect width="232" height="237.759" rx="16" fill="#D5FDF4"/>
<path d="M58.1104 208.732V156.869H175.235V208.732C129.108 220.405 103.379 221.165 58.1104 208.732Z" fill="#EBED82"/>
<ellipse cx="116.413" cy="156.869" rx="58.8227" ry="5.7261" fill="#FBFDB0"/>
<ellipse cx="116.933" cy="156.869" rx="47.891" ry="4.68499" fill="#623737"/>
<path d="M142.18 29.3335L117.714 158.431H123.18L142.18 29.3335Z" fill="#5F8E5E"/>
<path d="M141.92 27.5116L117.714 158.431L141.92 31.9363V27.5116Z" fill="#46DA4C"/>
<path d="M78.9319 21.0045L109.124 158.431H102.379L78.9319 21.0045Z" fill="#5F8E5E"/>
<path d="M79.4524 18.922L109.124 158.431L79.4524 23.637V18.922Z" fill="#46DA4C"/>
<path d="M126.823 24.6483L117.453 157.91H113.81L126.823 24.6483Z" fill="#5F8E5E"/>
<path d="M125.262 43.3885L114.851 157.65V157.911H113.81L125.262 43.3885Z" fill="#46DA4C"/>
<path d="M146.084 29.3335L121.618 158.431H127.084L146.084 29.3335Z" fill="#5F8E5E"/>
<path d="M145.824 27.5116L121.618 158.431L145.824 31.9363V27.5116Z" fill="#46DA4C"/>
<path d="M130.728 24.6483L121.358 157.91H117.714L130.728 24.6483Z" fill="#5F8E5E"/>
<path d="M129.166 43.3885L118.755 157.65V157.911H117.714L129.166 43.3885Z" fill="#46DA4C"/>
<path d="M88.3033 25.1685L114.852 158.43H108.921L88.3033 25.1685Z" fill="#5F8E5E"/>
<path d="M88.8238 23.6071L114.852 158.431L88.8238 28.1638V23.6071Z" fill="#46DA4C"/>
<path d="M104.96 21.0045L115.079 158.431H119.015L104.96 21.0045Z" fill="#5F8E5E"/>
<path d="M106.521 40.265L117.879 158.162V158.431H119.015L106.521 40.265Z" fill="#46DA4C"/>
<path d="M86.2199 21.0045L116.412 158.431H109.667L86.2199 21.0045Z" fill="#5F8E5E"/>
<path d="M86.7405 18.922L116.412 158.431L86.7405 23.637V18.922Z" fill="#46DA4C"/>
<path d="M95.5894 25.1685L122.138 158.43H116.207L95.5894 25.1685Z" fill="#5F8E5E"/>
<path d="M96.11 23.6071L122.138 158.431L96.11 28.1638V23.6071Z" fill="#46DA4C"/>
<path d="M112.248 21.0045L122.367 158.431H126.303L112.248 21.0045Z" fill="#5F8E5E"/>
<path d="M113.809 40.265L125.167 158.162V158.431H126.303L113.809 40.265Z" fill="#46DA4C"/>
</svg>
