<svg width="232" height="238" viewBox="0 0 232 238" fill="none" xmlns="http://www.w3.org/2000/svg">
<rect width="232" height="237.759" rx="16" fill="#D5FDF4"/>
<path d="M108.523 76.7573L58.2432 100.094L113.255 125.273L180.688 98.8658L108.523 76.7573Z" fill="#2D1108"/>
<path d="M182.996 97.55L120.618 130.889V219.995L182.996 186.656V97.55Z" fill="#BDBABB"/>
<path d="M120.619 219.995V131.696L49 99.8598V179.149L120.619 219.995Z" fill="#EFEEEE"/>
<path d="M109.067 72.1365L49 99.86H59.0112L109.067 76.958V72.1365Z" fill="#DCDADB"/>
<path d="M120.619 132.204L49 99.8598H58.8785L116.297 124.881L120.619 132.204Z" fill="#DCDADB"/>
<path d="M183 99.8598L120.116 132.204L116.002 125.147L174.772 99.8598H183Z" fill="#DCDADB"/>
<path d="M119.528 132.204L116.002 125.145L183 97.55L119.528 132.204Z" fill="#DCDADB"/>
<path d="M109.07 76.4491L175.122 99.86L182.999 98.6278L109.07 72.1365V76.4491Z" fill="#DCDADB"/>
<path d="M98.67 30.2789C89.4281 46.4536 98.67 101.898 98.67 101.898C116.787 111.581 123.565 110.492 132.169 101.898C140.773 93.3032 136.791 44.1375 132.169 30.2789C127.548 16.4204 107.912 14.1043 98.67 30.2789Z" fill="#60BD5E"/>
<path d="M156.197 68.9116C151.445 76.5286 148.027 80.4809 136.684 85.1924L128.397 77.0629C135.13 67.5714 148.797 60.042 148.797 60.042C155.047 60.2789 156.515 62.3671 156.197 68.9116Z" fill="#60BD5E"/>
<path d="M77.2574 74.5184C91.0633 78.9485 99.0947 78.3952 113.69 74.5184L111.26 52.8952C102.801 52.5787 98.0235 53.1749 89.4003 56.1389C91.5953 46.7367 91.3242 40.9874 89.4003 30.1883C83.932 25.284 81.38 26.1048 77.2574 30.1883C71.083 47.1781 69.7242 56.8243 77.2574 74.5184Z" fill="#60BD5E"/>
</svg>
