<svg width="35" height="35" viewBox="0 0 35 35" fill="none" xmlns="http://www.w3.org/2000/svg">
<path d="M17.5 35C27.0716 35 35 27.0886 35 17.5C35 7.92836 27.0716 0 17.4831 0C7.91142 0 0 7.92836 0 17.5C0 27.0886 7.92836 35 17.5 35ZM17.5 6.55615C18.1268 6.55615 18.652 7.08132 18.652 7.72507V9.69022C18.652 10.3001 18.1268 10.8422 17.5 10.8422C16.8732 10.8422 16.348 10.3001 16.348 9.69022V7.72507C16.348 7.08132 16.8732 6.55615 17.5 6.55615ZM25.242 9.75799C25.6825 10.1985 25.6825 10.9439 25.242 11.3843L23.819 12.8074C23.3785 13.2648 22.6331 13.2648 22.1926 12.8074C21.7522 12.3838 21.7352 11.6554 22.1926 11.198L23.5987 9.75799C24.0392 9.31752 24.7677 9.30058 25.242 9.75799ZM9.77493 9.75799C10.2323 9.31752 10.9777 9.33446 11.4013 9.75799L12.8243 11.198C13.2478 11.6215 13.2478 12.3669 12.8074 12.8074C12.35 13.2648 11.6215 13.2648 11.181 12.8074L9.75799 11.3843C9.31752 10.9439 9.3514 10.1985 9.77493 9.75799ZM17.5 22.7178C14.6539 22.7178 12.2822 20.3291 12.2822 17.4831C12.2822 14.6539 14.6539 12.2652 17.5 12.2652C20.3461 12.2652 22.7009 14.6539 22.7009 17.4831C22.7009 20.3291 20.3461 22.7178 17.5 22.7178ZM28.4269 17.4831C28.4269 18.1268 27.9017 18.652 27.258 18.652H25.2928C24.683 18.652 24.1409 18.1099 24.1409 17.4831C24.1409 16.8732 24.683 16.3311 25.2928 16.3311H27.258C27.9017 16.3311 28.4269 16.8562 28.4269 17.4831ZM6.59003 17.4831C6.59003 16.8562 7.1152 16.3311 7.74201 16.3311H9.70716C10.334 16.3311 10.8591 16.8732 10.8591 17.4831C10.8591 18.1099 10.334 18.652 9.70716 18.652H7.74201C7.1152 18.652 6.59003 18.1268 6.59003 17.4831ZM9.75799 25.2081C9.31752 24.7677 9.31752 24.0223 9.75799 23.5818L11.181 22.1757C11.6045 21.7352 12.3669 21.7352 12.8243 22.1757C13.2648 22.6331 13.2478 23.3785 12.8074 23.819L11.3843 25.2251C10.9439 25.6655 10.2154 25.6486 9.75799 25.2081ZM25.242 25.2251C24.7846 25.6486 24.0561 25.6655 23.6157 25.2251L22.1926 23.802C21.7352 23.3785 21.7352 22.6331 22.1926 22.1757C22.6331 21.7352 23.3785 21.7352 23.802 22.1757L25.242 23.5818C25.6825 24.0223 25.6994 24.7507 25.242 25.2251ZM17.5 28.4269C16.8732 28.4269 16.348 27.9017 16.348 27.258V25.2928C16.348 24.683 16.8732 24.1409 17.5 24.1409C18.1268 24.1409 18.652 24.683 18.652 25.2928V27.258C18.652 27.9017 18.1268 28.4269 17.5 28.4269Z" fill="#FAB25F"/>
</svg>
